<svg id="Layer_1" xmlns="http://www.w3.org/2000/svg" xmlns:xlink="http://www.w3.org/1999/xlink" width="243" height="97" viewBox="0 0 243 97"><style>.st0{enable-background:new}.st1{fill:#12100b}.st2{clip-path:url(#XMLID_99_);enable-background:new}.st3{fill:#484644}.st4,.st5{clip-path:url(#XMLID_100_);enable-background:new}.st5{clip-path:url(#XMLID_101_)}.st6{fill:#c8b600}.st7{clip-path:url(#XMLID_102_)}.st8{clip-path:url(#XMLID_103_);enable-background:new}.st9{clip-path:url(#XMLID_104_)}.st10{clip-path:url(#XMLID_105_);enable-background:new}.st11{clip-path:url(#XMLID_106_)}.st12,.st13,.st14{clip-path:url(#XMLID_107_);enable-background:new}.st13,.st14{clip-path:url(#XMLID_108_)}.st14{clip-path:url(#XMLID_109_)}.st15{clip-path:url(#XMLID_110_)}.st16,.st17{clip-path:url(#XMLID_111_);enable-background:new}.st17{clip-path:url(#XMLID_112_)}.st18{clip-path:url(#XMLID_113_)}.st19{clip-path:url(#XMLID_114_)}.st20,.st21,.st22{clip-path:url(#XMLID_115_);enable-background:new}.st21,.st22{clip-path:url(#XMLID_116_)}.st22{clip-path:url(#XMLID_117_)}.st23{fill:url(#XMLID_118_)}.st24{fill:none}.st25{fill:#fbe100}.st26{fill:url(#XMLID_119_)}.st27{fill:#fff}</style><g id="XMLID_2_"><g id="XMLID_271_"><g id="XMLID_485_" class="st0"><g id="XMLID_491_"><path id="XMLID_492_" class="st1" d="M17.54 6.69l12.21 15.2-1.68 55.51-12.21-15.21z"/></g><g id="XMLID_486_" class="st0"><defs><path id="XMLID_487_" class="st0" d="M15.86 62.19L28.07 77.4c-.11 3.69-1.15 7.12-3.54 9.63-2.16 2.24-5.54 3.67-10.47 3.67-.59 0-1.21-.02-1.84-.06L0 75.43c.64.04 1.25.06 1.84.06 4.93 0 8.31-1.43 10.47-3.67 2.4-2.5 3.44-5.94 3.55-9.63z"/></defs><clipPath id="XMLID_99_"><use xlink:href="#XMLID_487_" overflow="visible"/></clipPath><g id="XMLID_488_" class="st2"><path id="XMLID_490_" class="st1" d="M15.86 62.19L28.07 77.4c-.11 3.69-1.15 7.12-3.54 9.63-.07.07-.14.15-.22.22L12.1 72.04l.22-.22c2.39-2.5 3.43-5.94 3.54-9.63"/><path id="XMLID_489_" class="st3" d="M12.1 72.04l12.21 15.21c-2.17 2.11-5.48 3.45-10.26 3.45-.59 0-1.21-.02-1.84-.06L0 75.43c.64.04 1.25.06 1.84.06 4.78 0 8.09-1.33 10.26-3.45"/></g></g></g><g id="XMLID_468_" class="st0"><g id="XMLID_483_"><path id="XMLID_484_" class="st1" d="M37.65 33.33l12.21 15.2h-.57l-12.2-15.2z"/></g><g id="XMLID_481_"><path id="XMLID_482_" class="st1" d="M34.22 29.74l15.07 18.78-.41 2.16L33.8 31.9z"/></g><g id="XMLID_479_"><path id="XMLID_480_" class="st1" d="M36.75 35.07l12.21 15.21-3.54 21.52-12.21-15.21z"/></g><g id="XMLID_477_"><path id="XMLID_478_" class="st3" d="M41.18 67.15l12.2 15.21h-9.66L31.51 67.15z"/></g><g id="XMLID_475_"><path id="XMLID_476_" class="st1" d="M31.51 67.15l12.21 15.21-2.29 13.91-12.21-15.21z"/></g><g id="XMLID_473_"><path id="XMLID_474_" class="st3" d="M29.22 81.06l12.21 15.21h-9.75L19.47 81.06z"/></g><g id="XMLID_471_"><path id="XMLID_472_" class="st3" d="M52.4 81.06l12.2 15.21h-9.78l-12.2-15.21z"/></g><g id="XMLID_469_"><path id="XMLID_470_" class="st1" d="M44.12 12.94l12.21 15.2 8.27 68.13-12.2-15.21z"/></g></g><g id="XMLID_423_" class="st0"><g id="XMLID_462_" class="st0"><defs><path id="XMLID_463_" class="st0" d="M74.26 16.4l12.21 15.21c-.44-.45-1.28-.73-2.3-.73-1.78 0-2.64 1.3-3.16 2.51-.3.73-.42 1.58-.53 2.51l-12.2-15.22c.11-.93.22-1.77.53-2.51.52-1.21 1.38-2.51 3.16-2.51 1.01.01 1.85.29 2.29.74z"/></defs><clipPath id="XMLID_100_"><use xlink:href="#XMLID_463_" overflow="visible"/></clipPath><g id="XMLID_464_" class="st4"><path id="XMLID_467_" class="st3" d="M74.26 16.4l12.21 15.21c-.13-.13-.28-.24-.47-.34L73.79 16.06c.18.1.34.21.47.34"/><path id="XMLID_466_" class="st3" d="M72.95 14.53l15.03 18.72c-.57-.3-1.35-.48-2.25-.48-1.12 0-1.95.42-2.57 1.02L68.14 15.08c.62-.61 1.45-1.02 2.57-1.02.89-.01 1.67.17 2.24.47"/><path id="XMLID_465_" class="st1" d="M69.87 16.5l12.21 15.21c-.48.47-.82 1.08-1.07 1.67-.3.73-.42 1.58-.53 2.51l-12.2-15.21c.11-.93.22-1.77.53-2.51.25-.58.58-1.2 1.06-1.67"/></g></g><g id="XMLID_458_" class="st0"><defs><path id="XMLID_459_" class="st0" d="M74.42 16.6l12.21 15.21c-.05-.07-.11-.13-.16-.2L74.26 16.4c.05.07.11.13.16.2z"/></defs><clipPath id="XMLID_101_"><use xlink:href="#XMLID_459_" overflow="visible"/></clipPath><g id="XMLID_460_" class="st5"><path id="XMLID_461_" class="st6" d="M74.42 16.6l12.21 15.21c-.05-.07-.11-.13-.16-.2L74.26 16.4c.05.07.11.13.16.2"/></g></g><g id="XMLID_454_" class="st0"><defs><path id="XMLID_455_" class="st0" d="M81.69 10.21l12.21 15.2c.79.99 1.41 2.07 1.87 3.15l-12.21-15.2a13.28 13.28 0 0 0-1.87-3.15z"/></defs><clipPath id="XMLID_102_"><use xlink:href="#XMLID_455_" overflow="visible"/></clipPath><g id="XMLID_456_" class="st7"><path id="XMLID_457_" class="st1" d="M81.69 10.21l12.21 15.2c.79.99 1.41 2.07 1.87 3.15l-12.21-15.2a13.28 13.28 0 0 0-1.87-3.15"/></g></g><g id="XMLID_450_" class="st0"><defs><path id="XMLID_451_" class="st0" d="M83.56 13.36l12.21 15.21c.95 2.11 1.44 4.62 1.45 7.32L85.01 20.68c-.01-2.7-.5-5.21-1.45-7.32z"/></defs><clipPath id="XMLID_103_"><use xlink:href="#XMLID_451_" overflow="visible"/></clipPath><g id="XMLID_452_" class="st8"><path id="XMLID_453_" class="st1" d="M83.56 13.36l12.21 15.21c.95 2.11 1.44 4.62 1.45 7.32L85.01 20.68c-.01-2.7-.5-5.21-1.45-7.32"/></g></g><g id="XMLID_448_"><path id="XMLID_449_" class="st1" d="M68.28 20.68l12.2 15.21-1.22 40.1-12.2-15.2z"/></g><g id="XMLID_446_"><path id="XMLID_447_" class="st3" d="M84.72 30.03l12.21 15.21h-9.38L75.34 30.03z"/></g><g id="XMLID_444_"><path id="XMLID_445_" class="st1" d="M85.01 20.68l12.2 15.21-.28 9.35-12.21-15.21z"/></g><g id="XMLID_440_" class="st0"><defs><path id="XMLID_441_" class="st0" d="M80.53 80.05l-12.21-15.2c-.79-.98-1.24-2.23-1.27-4.06L79.26 76c.03 1.82.48 3.07 1.27 4.05z"/></defs><clipPath id="XMLID_104_"><use xlink:href="#XMLID_441_" overflow="visible"/></clipPath><g id="XMLID_442_" class="st9"><path id="XMLID_443_" class="st1" d="M67.06 60.79L79.27 76c.02 1.83.48 3.08 1.27 4.06L68.32 64.85c-.78-.99-1.24-2.23-1.26-4.06"/></g></g><g id="XMLID_436_" class="st0"><defs><path id="XMLID_437_" class="st0" d="M72.45 86.49l-12.2-15.2c.55.69 1.2 1.34 1.97 1.92l12.21 15.21c-.77-.59-1.42-1.23-1.98-1.93z"/></defs><clipPath id="XMLID_105_"><use xlink:href="#XMLID_437_" overflow="visible"/></clipPath><g id="XMLID_438_" class="st10"><path id="XMLID_439_" class="st3" d="M62.22 73.21l12.21 15.21c-.77-.58-1.42-1.23-1.97-1.92L60.25 71.29c.55.69 1.2 1.33 1.97 1.92"/></g></g><g id="XMLID_434_"><path id="XMLID_435_" class="st1" d="M84.07 51.44l12.21 15.2-.28 9.35-12.21-15.2z"/></g><g id="XMLID_429_" class="st0"><defs><path id="XMLID_430_" class="st0" d="M77.73 73.21l12.21 15.21c-1.91 1.49-4.42 2.34-7.79 2.34-3.34 0-5.94-.84-7.73-2.34l-12.2-15.21c1.79 1.49 4.39 2.34 7.73 2.34 3.36-.01 5.87-.85 7.78-2.34z"/></defs><clipPath id="XMLID_106_"><use xlink:href="#XMLID_430_" overflow="visible"/></clipPath><g id="XMLID_431_" class="st11"><path id="XMLID_433_" class="st3" d="M77.73 73.21l12.21 15.21c-1.91 1.49-4.42 2.34-7.79 2.34-2.51 0-4.61-.48-6.26-1.35l-12.2-15.22c1.65.87 3.74 1.35 6.26 1.35 3.36 0 5.87-.84 7.78-2.33"/><path id="XMLID_432_" class="st3" d="M63.69 74.19l12.21 15.2c-.54-.29-1.03-.62-1.47-.98l-12.21-15.2c.44.36.93.69 1.47.98"/></g></g><g id="XMLID_424_" class="st0"><defs><path id="XMLID_425_" class="st0" d="M83.79 60.79L96 75.99c-.17 2.79-.81 5.29-1.89 7.43-.9 1.86-2.26 3.6-4.16 4.98L77.73 73.21c1.91-1.38 3.26-3.13 4.16-4.98 1.09-2.15 1.73-4.66 1.9-7.44z"/></defs><clipPath id="XMLID_107_"><use xlink:href="#XMLID_425_" overflow="visible"/></clipPath><g id="XMLID_426_" class="st12"><path id="XMLID_428_" class="st1" d="M83.79 60.79L96 75.99c-.17 2.79-.81 5.29-1.89 7.43a13.36 13.36 0 0 1-2.7 3.75L79.2 71.97c1.16-1.13 2.04-2.41 2.7-3.75 1.08-2.14 1.72-4.65 1.89-7.43"/><path id="XMLID_427_" class="st3" d="M79.2 71.97l12.21 15.21c-.45.44-.94.85-1.47 1.23l-12.21-15.2c.53-.39 1.02-.8 1.47-1.24"/></g></g></g><g id="XMLID_404_" class="st0"><g id="XMLID_421_"><path id="XMLID_422_" class="st1" d="M101.32 12.94l12.21 15.2-.72 23.83-12.21-15.21z"/></g><g id="XMLID_419_"><path id="XMLID_420_" class="st3" d="M120.32 12.94l12.2 15.2-9.89 22.42-12.21-15.2z"/></g><g id="XMLID_417_"><path id="XMLID_418_" class="st1" d="M103.36 50l12.21 15.21h-.28L103.08 50z"/></g><g id="XMLID_415_"><path id="XMLID_416_" class="st3" d="M97.28 42.41l18.44 22.97-.88 2.13L96.4 44.53z"/></g><g id="XMLID_413_"><path id="XMLID_414_" class="st3" d="M102.5 51.41l12.21 15.2-2.52 5.55-12.2-15.2z"/></g><g id="XMLID_411_"><path id="XMLID_412_" class="st1" d="M99.99 56.96l12.2 15.2-.73 24.11-12.2-15.21z"/></g><g id="XMLID_409_"><path id="XMLID_410_" class="st3" d="M99.26 81.06l12.2 15.21h-10.03L89.22 81.06z"/></g><g id="XMLID_407_"><path id="XMLID_408_" class="st3" d="M119.44 81.06l12.2 15.21h-9.75l-12.2-15.21z"/></g><g id="XMLID_405_"><path id="XMLID_406_" class="st1" d="M110.42 35.36l12.21 15.2 9.01 45.71-12.2-15.21z"/></g></g><g id="XMLID_387_" class="st0"><g id="XMLID_399_" class="st0"><defs><path id="XMLID_400_" class="st0" d="M141.9 18.9l12.2 15.2c-1.12-1.4-2.98-2.02-5.82-2.02l-12.21-15.21c2.85.01 4.71.63 5.83 2.03z"/></defs><clipPath id="XMLID_108_"><use xlink:href="#XMLID_400_" overflow="visible"/></clipPath><g id="XMLID_401_" class="st13"><path id="XMLID_403_" class="st6" d="M141.9 18.9l12.2 15.2a4.54 4.54 0 0 0-1.43-1.17l-12.21-15.21c.58.31 1.05.7 1.44 1.18"/><path id="XMLID_402_" class="st3" d="M140.46 17.72l12.21 15.21c-1.09-.58-2.53-.84-4.38-.84l-12.21-15.21c1.86 0 3.3.27 4.38.84"/></g></g><g id="XMLID_397_"><path id="XMLID_398_" class="st1" d="M136.08 16.88l12.21 15.21-.63 20.47-12.2-15.2z"/></g><g id="XMLID_392_" class="st0"><defs><path id="XMLID_393_" class="st0" d="M149.53 12.23l12.21 15.21c2.58 3.21 4.14 8.03 3.93 14.85-.24 7.77-2.62 12.87-6.08 16.02-3.43 3.15-7.85 4.45-12.23 4.45l-12.21-15.21c4.38 0 8.8-1.3 12.23-4.45 3.46-3.15 5.85-8.25 6.08-16.02.21-6.82-1.35-11.64-3.93-14.85z"/></defs><clipPath id="XMLID_109_"><use xlink:href="#XMLID_393_" overflow="visible"/></clipPath><g id="XMLID_394_" class="st14"><path id="XMLID_396_" class="st1" d="M149.53 12.23l12.21 15.21c2.58 3.21 4.14 8.03 3.93 14.85-.23 7.51-2.46 12.52-5.73 15.7l-12.21-15.21c3.27-3.18 5.51-8.19 5.73-15.7.21-6.82-1.35-11.64-3.93-14.85"/><path id="XMLID_395_" class="st3" d="M147.73 42.77l12.21 15.21c-.11.11-.23.22-.35.33-3.43 3.15-7.85 4.45-12.23 4.45l-12.21-15.21c4.38 0 8.8-1.3 12.23-4.45.12-.11.23-.22.35-.33"/></g></g><g id="XMLID_390_"><path id="XMLID_391_" class="st1" d="M135.15 47.55l12.21 15.21-.83 27.23-12.21-15.21z"/></g><g id="XMLID_388_"><path id="XMLID_389_" class="st3" d="M134.32 74.78l12.21 15.21H136.5l-12.21-15.21z"/></g></g><g id="XMLID_346_" class="st0"><g id="XMLID_383_" class="st0"><defs><path id="XMLID_384_" class="st0" d="M168.32 24.43l12.21 15.21c-.3.73-.42 1.58-.44 2.51l-12.21-15.21c.03-.93.14-1.78.44-2.51z"/></defs><clipPath id="XMLID_110_"><use xlink:href="#XMLID_384_" overflow="visible"/></clipPath><g id="XMLID_385_" class="st15"><path id="XMLID_386_" class="st1" d="M168.32 24.43l12.21 15.21c-.3.73-.42 1.58-.44 2.51l-12.21-15.21c.03-.93.14-1.78.44-2.51"/></g></g><g id="XMLID_377_" class="st0"><defs><path id="XMLID_378_" class="st0" d="M173.41 22.66l12.21 15.21c-.47-.45-1.19-.73-2.04-.73-1.75 0-2.64 1.3-3.04 2.51l-12.21-15.21c.4-1.21 1.29-2.51 3.04-2.51.85-.01 1.57.27 2.04.73z"/></defs><clipPath id="XMLID_111_"><use xlink:href="#XMLID_378_" overflow="visible"/></clipPath><g id="XMLID_379_" class="st16"><path id="XMLID_382_" class="st3" d="M173.41 22.66l12.21 15.21a2.31 2.31 0 0 0-.53-.38l-12.21-15.21c.2.1.38.23.53.38"/><path id="XMLID_381_" class="st3" d="M170.86 19.34l14.09 17.63c-.48-.26-1.08-.41-1.74-.41-1.02 0-1.78.38-2.35.93l-14.09-17.63c.57-.56 1.33-.93 2.35-.93.65 0 1.25.15 1.74.41"/><path id="XMLID_380_" class="st3" d="M169.33 22.73l12.21 15.21c-.49.47-.81 1.1-1.01 1.7l-12.21-15.21c.21-.6.53-1.23 1.01-1.7"/></g></g><g id="XMLID_373_" class="st0"><defs><path id="XMLID_374_" class="st0" d="M181.3 16.46l12.21 15.21c.79.99 1.41 2.07 1.87 3.15l-12.21-15.21c-.46-1.08-1.08-2.16-1.87-3.15z"/></defs><clipPath id="XMLID_112_"><use xlink:href="#XMLID_374_" overflow="visible"/></clipPath><g id="XMLID_375_" class="st17"><path id="XMLID_376_" class="st1" d="M181.3 16.46l12.21 15.21c.79.99 1.41 2.07 1.87 3.15l-12.21-15.21c-.46-1.08-1.08-2.16-1.87-3.15"/></g></g><g id="XMLID_369_" class="st0"><defs><path id="XMLID_370_" class="st0" d="M183.17 19.61l12.21 15.21c.95 2.11 1.44 4.62 1.45 7.32l-12.21-15.21c-.01-2.7-.5-5.2-1.45-7.32z"/></defs><clipPath id="XMLID_113_"><use xlink:href="#XMLID_370_" overflow="visible"/></clipPath><g id="XMLID_371_" class="st18"><path id="XMLID_372_" class="st1" d="M183.17 19.61l12.21 15.21c.95 2.11 1.44 4.62 1.45 7.32l-12.21-15.21c-.01-2.7-.5-5.2-1.45-7.32"/></g></g><g id="XMLID_367_"><path id="XMLID_368_" class="st1" d="M167.88 26.94l12.21 15.2-1.22 40.13-12.21-15.2z"/></g><g id="XMLID_363_" class="st0"><defs><path id="XMLID_364_" class="st0" d="M179.97 86.34l-12.21-15.21c-.79-.99-1.15-2.24-1.1-4.06l12.21 15.21c-.06 1.82.31 3.07 1.1 4.06z"/></defs><clipPath id="XMLID_114_"><use xlink:href="#XMLID_364_" overflow="visible"/></clipPath><g id="XMLID_365_" class="st19"><path id="XMLID_366_" class="st1" d="M166.66 67.07l12.21 15.21c-.06 1.82.31 3.08 1.1 4.06l-12.21-15.21c-.79-.99-1.15-2.24-1.1-4.06"/></g></g><g id="XMLID_359_" class="st0"><defs><path id="XMLID_360_" class="st0" d="M172.09 92.79l-12.21-15.21c.54.68 1.18 1.32 1.93 1.9l12.21 15.21c-.74-.58-1.38-1.22-1.93-1.9z"/></defs><clipPath id="XMLID_115_"><use xlink:href="#XMLID_360_" overflow="visible"/></clipPath><g id="XMLID_361_" class="st20"><path id="XMLID_362_" class="st3" d="M161.82 79.49l12.21 15.21a11.22 11.22 0 0 1-1.93-1.9l-12.21-15.21c.54.68 1.18 1.32 1.93 1.9"/></g></g><g id="XMLID_357_"><path id="XMLID_358_" class="st1" d="M184.61 26.94l12.21 15.2-1.22 40.13-12.2-15.2z"/></g><g id="XMLID_352_" class="st0"><defs><path id="XMLID_353_" class="st0" d="M177.34 79.49l12.21 15.21c-1.88 1.46-4.42 2.31-7.79 2.31-3.33 0-5.91-.84-7.73-2.31l-12.21-15.21c1.82 1.46 4.4 2.31 7.73 2.31 3.37-.01 5.91-.85 7.79-2.31z"/></defs><clipPath id="XMLID_116_"><use xlink:href="#XMLID_353_" overflow="visible"/></clipPath><g id="XMLID_354_" class="st21"><path id="XMLID_356_" class="st3" d="M177.34 79.49l12.21 15.21c-1.88 1.46-4.42 2.31-7.79 2.31-2.54 0-4.64-.49-6.3-1.37l-12.21-15.21c1.66.88 3.76 1.37 6.3 1.37 3.37-.01 5.91-.85 7.79-2.31"/><path id="XMLID_355_" class="st3" d="M163.25 80.42l12.21 15.21c-.52-.28-1-.59-1.43-.94l-12.21-15.21c.44.35.91.67 1.43.94"/></g></g><g id="XMLID_347_" class="st0"><defs><path id="XMLID_348_" class="st0" d="M183.4 67.07l12.21 15.21c-.17 2.76-.81 5.27-1.89 7.41-.9 1.86-2.26 3.6-4.17 5.01l-12.21-15.21a13.59 13.59 0 0 0 4.17-5.01c1.08-2.15 1.72-4.65 1.89-7.41z"/></defs><clipPath id="XMLID_117_"><use xlink:href="#XMLID_348_" overflow="visible"/></clipPath><g id="XMLID_349_" class="st22"><path id="XMLID_351_" class="st1" d="M183.4 67.07l12.21 15.21c-.17 2.76-.81 5.27-1.89 7.41-.66 1.36-1.56 2.66-2.74 3.8l-12.21-15.21c1.18-1.15 2.08-2.45 2.74-3.8 1.08-2.15 1.72-4.65 1.89-7.41"/><path id="XMLID_350_" class="st3" d="M178.76 78.28l12.21 15.21c-.44.42-.91.83-1.42 1.21l-12.21-15.21c.51-.38.99-.79 1.42-1.21"/></g></g></g><g id="XMLID_335_" class="st0"><g id="XMLID_344_"><path id="XMLID_345_" class="st3" d="M196.73 16.97l12.2 15.2h-9.49l-12.21-15.2z"/></g><g id="XMLID_342_"><path id="XMLID_343_" class="st1" d="M216.57 6.69l12.21 15.2-.32 10.28-12.2-15.2z"/></g><g id="XMLID_340_"><path id="XMLID_341_" class="st3" d="M216.26 16.97l12.2 15.2h-9.49l-12.21-15.2z"/></g><g id="XMLID_338_"><path id="XMLID_339_" class="st1" d="M206.76 16.97l12.21 15.2-1.76 57.82-12.2-15.21z"/></g><g id="XMLID_336_"><path id="XMLID_337_" class="st3" d="M205.01 74.78l12.2 15.21h-10.03l-12.2-15.21z"/></g></g><g id="XMLID_330_" class="st0"><g id="XMLID_333_"><path id="XMLID_334_" class="st3" d="M226.77 62.7l12.21 15.21h-5.85L220.92 62.7z"/></g><g id="XMLID_331_"><path id="XMLID_332_" class="st1" d="M230.79 12.94L243 28.14l-4.02 49.77-12.21-15.21z"/></g></g><g id="XMLID_272_" class="st0"><g id="XMLID_277_"><g id="XMLID_200_"><linearGradient id="XMLID_118_" gradientUnits="userSpaceOnUse" x1="159.557" y1="120.672" x2="72.182" y2="-30.667"><stop offset="0" stop-color="#db7e0e"/><stop offset="1" stop-color="#fbe100"/></linearGradient><path id="XMLID_201_" class="st23" d="M218.41 81.06h9.75l.31-10.31h-9.75l-.31 10.31zM31.85 12.94L19.47 81.06h9.75l2.29-13.91h9.67l1.44 13.91h9.78l-8.28-68.12H31.85zm1.36 43.65l3.54-21.52.34-1.75h.57l.23 1.75 2.23 21.52h-6.91zM5.85 60.62c-.05 1.58-.36 2.68-.92 3.32-.97 1.23-2.16 1.76-3.65 1.76-.31 0-.64-.02-.98-.07l-.3 9.8c.64.04 1.25.06 1.84.06 4.93 0 8.31-1.43 10.47-3.67 2.39-2.51 3.43-5.94 3.54-9.63l1.68-55.51H7.48L5.85 60.62zm173.46-46.1c-1.79-1.41-4.28-2.34-7.64-2.34-3.33 0-5.96.93-7.87 2.34-1.91 1.38-3.18 3.24-4.05 5.1-1.11 2.11-1.72 4.62-1.92 7.32l-1.22 40.13c.03 2.76.49 5.27 1.47 7.41.76 1.86 1.93 3.6 3.75 5.01 1.82 1.46 4.4 2.31 7.73 2.31 3.36 0 5.9-.84 7.79-2.31a13.59 13.59 0 0 0 4.17-5.01c1.08-2.14 1.72-4.65 1.89-7.41l1.22-40.13c0-2.7-.49-5.21-1.45-7.32-.8-1.87-2.05-3.72-3.87-5.1zm-5.95 52.55c-.03 1.01-.17 1.83-.44 2.51-.44 1.38-1.29 2.48-3.07 2.48-.82 0-1.46-.28-1.93-.73-.9-1.01-1.31-2.31-1.26-4.25l1.22-40.13c.03-.93.14-1.77.44-2.51.4-1.21 1.29-2.51 3.04-2.51.85 0 1.57.28 2.04.73.9 1.13 1.23 2.42 1.17 4.28l-1.21 40.13zm53.41-4.37l4.02-49.76h-10.88l1.01 49.76h5.85zM79.7 8.26c-1.82-1.41-4.28-2.34-7.64-2.34-3.34 0-5.99.93-7.87 2.34-1.91 1.38-3.18 3.24-4.08 5.1-1.08 2.11-1.72 4.62-1.89 7.32L57 60.79c0 2.79.49 5.29 1.44 7.43.79 1.86 1.95 3.6 3.78 4.98 1.79 1.49 4.39 2.34 7.73 2.34 3.36 0 5.88-.84 7.79-2.34 1.91-1.38 3.26-3.13 4.16-4.98 1.08-2.14 1.72-4.65 1.89-7.43l.28-9.35h-9.38l-.28 9.35c-.03 1.04-.17 1.86-.47 2.51-.49 1.41-1.38 2.51-3.5 2.51-.85 0-1.49-.28-1.93-.73-.9-1.01-1.43-2.31-1.45-4.28l1.22-40.1c.11-.93.22-1.77.53-2.51.52-1.21 1.38-2.51 3.16-2.51 1.02 0 1.86.28 2.3.73.98 1.13 1.42 2.42 1.37 4.28l-.28 9.35h9.38l.28-9.35c0-2.7-.49-5.21-1.45-7.32-.8-1.87-2.04-3.73-3.87-5.11zm107.53 8.71h9.5l-1.75 57.82h10.03l1.75-57.82h9.5l.31-10.28h-29.03l-.31 10.28zM136.39 6.69h-10.03l-2.07 68.09h10.03l.83-27.23c4.38 0 8.8-1.3 12.23-4.45 3.46-3.15 5.85-8.25 6.08-16.02.24-7.8-1.84-12.98-5.11-16.14-3.23-3.15-7.58-4.25-11.96-4.25zm6.92 20.75c-.12 3.8-.47 6.31-1.62 7.77-1.18 1.58-3.15 2.14-6.23 2.14l.62-20.47c3.08 0 5.01.73 6.09 2.39 1.05 1.67 1.25 4.37 1.14 8.17zm-32.77-14.5l-9.05 22.7-.49 1.12h-.4l.72-23.82H91.29l-2.07 68.12h10.03l.73-24.11 2.51-5.55.58-1.41h.28l.24 1.41 6.08 29.65h9.75l-9.01-45.71 9.89-22.42h-9.76z"/></g></g><g id="XMLID_275_"><path id="XMLID_276_" class="st1" d="M228.48 70.76l12.2 15.2-.31 10.31-12.21-15.21z"/></g><g id="XMLID_273_"><path id="XMLID_274_" class="st3" d="M228.16 81.06l12.21 15.21h-9.75l-12.21-15.21z"/></g></g></g><g id="XMLID_28_"><path id="XMLID_270_" class="st24" d="M31.51 67.15l-2.08 12.64 12.93-1.23-1.18-11.41z"/><path id="XMLID_269_" class="st24" d="M47.85 43.6l-8.96 1.18 1.22 11.81h-6.9l1.86-11.31-9.32 1.23-3.53 19.41 27.9-3.62z"/><path id="XMLID_268_" class="st24" d="M83.88 57.93l-.09 2.86c-.17 2.79-.81 5.29-1.89 7.43-.9 1.86-2.26 3.6-4.16 4.98-1.91 1.49-4.42 2.34-7.79 2.34-3.34 0-5.94-.84-7.73-2.34-1.82-1.38-2.99-3.13-3.78-4.98-.88-1.98-1.34-4.28-1.41-6.81l-6.91.9 1.86 15.34 37.45-3.57.51-16.94-6.06.79z"/><path id="XMLID_267_" class="st24" d="M100.53 55.77l-.54 1.19-.49 16.16 8.39-.8-3.49-17.05z"/><path id="XMLID_266_" class="st24" d="M114.1 54.01l3.43 17.39 6.88-.65.55-18.15z"/><path id="XMLID_265_" class="st24" d="M184.49 25.65l-9.92 1.3-.59 19.3 10.07-1.31.55-18.01c.01-.44-.08-.85-.11-1.28z"/><path id="XMLID_264_" class="st24" d="M147.38 43.1c3.05-2.78 5.26-7.06 5.9-13.35l-10.26 1.35c-.23 1.81-.62 3.2-1.34 4.12-1.18 1.58-3.15 2.14-6.23 2.14l.16-5.29-10.07 1.32-.58 19.21 10.07-1.31.11-3.75c4.39.01 8.81-1.29 12.24-4.44z"/><path id="XMLID_263_" class="st24" d="M101.06 36.61l-.06.15h-.4v-.09l-10.07 1.32-.58 19.15 10.58-1.37 1.97-4.36.58-1.41h.28l.24 1.41.8 3.86 9.7-1.26-3.67-18.63z"/><path id="XMLID_262_" class="st24" d="M157.75 29.16l-.58 19.27 10.1-1.31.58-19.29z"/><path id="XMLID_261_" class="st24" d="M67.66 41l-10.1 1.33L57 60.79c0 .21.02.41.03.62l10.05-1.3.58-19.11z"/><path id="XMLID_260_" class="st24" d="M184.07 44.94l-.62 20.19L195.3 64l.63-20.59z"/><path id="XMLID_259_" class="st24" d="M153.28 29.75c-.65 6.29-2.86 10.58-5.9 13.35-3.43 3.15-7.85 4.45-12.23 4.45l-.11 3.75 22.13-2.87.58-19.27-4.47.59z"/><path id="XMLID_258_" class="st24" d="M57.56 42.33l-9.71 1.28 2.27 18.7 6.91-.9c-.01-.21-.03-.41-.03-.62l.56-18.46z"/><path id="XMLID_229_" class="st24" d="M184.61 26.94l-.55 18.01 11.86-1.54.59-19.34-12.02 1.58c.03.43.12.84.12 1.29z"/><path id="XMLID_228_" class="st24" d="M103.36 50h-.28l-.58 1.41-1.97 4.36 3.87-.5-.8-3.86z"/><path id="XMLID_227_" class="st24" d="M68.51 65.07c.44.45 1.08.73 1.93.73 2.12 0 3-1.1 3.5-2.51.3-.65.44-1.46.47-2.51l.05-1.64-7.38.96-.02.68c.02 1.98.55 3.27 1.45 4.29z"/><path id="XMLID_226_" class="st24" d="M67.66 41l-.58 19.1 7.38-.95.23-7.71h9.38l-.19 6.49 6.07-.79.58-19.15z"/><path id="XMLID_225_" class="st24" d="M16.3 47.75l-.44 14.45c-.05 1.62-.31 3.18-.76 4.65l7.12-.92 3.53-19.41-9.45 1.23z"/><path id="XMLID_224_" class="st24" d="M110.43 35.38l3.67 18.63 10.86-1.41.59-19.21z"/><path id="XMLID_223_" class="st24" d="M26.56 42.07L16.43 43.5l-.13 4.25 9.45-1.24z"/><path id="XMLID_222_" class="st24" d="M57.7 37.68l-10.4 1.46.55 4.46 9.71-1.27z"/><path id="XMLID_175_" class="st24" d="M35.82 40.76l.93-5.69.09-.46-9.18 1.4-1.1 6.06z"/><path id="XMLID_174_" class="st24" d="M100.76 31.6l.2-6.77-10.08 1.54-.2 6.65z"/><path id="XMLID_173_" class="st24" d="M153.28 29.75l4.47-.59.07-2.23c.09-1.2.27-2.35.53-3.45l-4.91.69c.04.93.06 1.89.03 2.9-.04.94-.1 1.82-.19 2.68z"/><path id="XMLID_172_" class="st24" d="M75.34 30.03h9.38l.09-2.74-9.43 1.44z"/><path id="XMLID_171_" class="st24" d="M110.43 35.38l15.12-1.99.16-5.31-12.88 1.82-2.41 5.46z"/><path id="XMLID_170_" class="st24" d="M67.8 36.25l.2-6.39-10.11 1.54-.19 6.28z"/><path id="XMLID_169_" class="st24" d="M37.88 35.07l.55 5.32 8.87-1.25-.73-6.01-8.77 1.33z"/><path id="XMLID_168_" class="st24" d="M135.78 26.66l.22-7.18-10.08 1.54-.21 7.06z"/><path id="XMLID_167_" class="st24" d="M142.17 19.28c.87 1.37 1.14 3.5 1.15 6.32l10.12-1.43c-.13-2.75-.59-5.12-1.31-7.15l-10.54 1.61c.2.21.42.4.58.65z"/><path id="XMLID_166_" class="st24" d="M158.35 23.48l24.95-3.52c-.05-.11-.08-.24-.13-.35-.79-1.86-2.04-3.72-3.86-5.1-.65-.51-1.43-.93-2.27-1.29l-14.29 2.18c-1.33 1.24-2.31 2.72-3.01 4.21-.62 1.18-1.07 2.49-1.39 3.87z"/><path id="XMLID_165_" class="st24" d="M112.83 29.9l3.26-7.38-9.98 1.52-2.88 7.21z"/><path id="XMLID_164_" class="st24" d="M184.49 25.65l12.02-1.58.18-6-13.4 1.89c.72 1.69 1.07 3.63 1.2 5.69z"/><path id="XMLID_163_" class="st24" d="M90.53 37.99l.15-4.97-22.88 3.23-.14 4.75z"/><path id="XMLID_162_" class="st24" d="M103.23 31.25l2.88-7.21-5.15.79-.2 6.77z"/><path id="XMLID_161_" class="st24" d="M101.06 36.61l.42-.97 1.75-4.39-2.47.35-.16 5.07z"/><path id="XMLID_160_" class="st24" d="M100.6 36.76h.4l.06-.15-.46.06z"/><path id="XMLID_158_" class="st24" d="M75.34 30.03l.04-1.3L68 29.86l-.2 6.39 22.88-3.23.2-6.65-6.07.92-.09 2.74z"/><path id="XMLID_157_" class="st24" d="M75.62 20.68c.06-1.86-.38-3.15-1.37-4.28-.44-.45-1.28-.73-2.3-.73-1.78 0-2.64 1.3-3.16 2.51-.3.73-.42 1.58-.53 2.51L68 29.86l7.38-1.13.24-8.05z"/><path id="XMLID_156_" class="st24" d="M125.71 28.08l.21-7.06-9.83 1.5-3.26 7.38z"/><path id="XMLID_155_" class="st24" d="M142.17 19.28c-.16-.25-.38-.44-.58-.64l-5.59.84-.22 7.18 7.54-1.06c-.01-2.83-.28-4.95-1.15-6.32z"/><path id="XMLID_154_" class="st24" d="M143.03 31.1a38.437 38.437 0 0 0 .29-5.49l-7.54 1.06-.16 5.41 7.41-.98z"/><path id="XMLID_153_" class="st24" d="M135.62 32.07l-.16 5.29c3.08 0 5.05-.56 6.23-2.14.72-.92 1.11-2.31 1.34-4.12"/><path id="XMLID_152_" class="st24" d="M173.41 22.66c-.47-.45-1.19-.73-2.04-.73-1.75 0-2.64 1.3-3.04 2.51-.3.73-.42 1.58-.44 2.51l-.03.9 6.73-.88v-.01c.05-1.88-.28-3.18-1.18-4.3z"/><path id="XMLID_151_" class="st24" d="M167.85 27.83l-.58 19.29 6.72-.87.59-19.3z"/><path id="XMLID_150_" class="st24" d="M166.66 67.07c-.06 1.94.35 3.24 1.26 4.25.47.45 1.11.73 1.93.73 1.78 0 2.63-1.1 3.07-2.48.27-.68.41-1.49.44-2.51l.03-.98-6.72.64-.01.35z"/><path id="XMLID_149_" class="st24" d="M166.67 66.72l6.72-.64.6-19.83-6.72.87z"/><path id="XMLID_148_" class="st24" d="M57.7 37.68l.19-6.28-11.32 1.73.73 6.01z"/><path id="XMLID_147_" class="st24" d="M27.66 36.01L16.6 37.7l-.17 5.8 10.13-1.43z"/><path id="XMLID_146_" class="st24" d="M136.08 16.88l-.08 2.6 5.59-.85c-1.14-1.18-2.89-1.75-5.51-1.75z"/><path id="XMLID_145_" class="st24" d="M33.21 56.59h6.9l-1.22-11.81-3.82.5z"/><path id="XMLID_144_" class="st24" d="M35.82 40.76l-.75 4.52 3.82-.5-.46-4.39z"/><path id="XMLID_143_" class="st24" d="M37.88 35.07l-.08-.61-.96.15-.09.46-.93 5.69 2.61-.37z"/><path id="XMLID_142_" class="st24" d="M37.65 33.33h-.56l-.25 1.28.96-.15z"/><path id="XMLID_141_" class="st24" d="M183.17 19.61c.05.11.08.24.13.35l13.4-1.89.03-1.11h-9.5l.16-5.32-10.35 1.58c.84.36 1.62.78 2.27 1.29 1.82 1.39 3.07 3.24 3.86 5.1z"/><path id="XMLID_140_" class="st24" d="M158.35 23.48c.32-1.39.77-2.69 1.39-3.87.7-1.49 1.68-2.97 3.01-4.21l-10.62 1.62c.71 2.03 1.18 4.4 1.31 7.15l4.91-.69z"/><path id="XMLID_139_" class="st25" d="M171.66 12.18c-3.33 0-5.96.93-7.87 2.34-.38.27-.72.58-1.05.89l14.29-2.18c-1.47-.64-3.22-1.05-5.37-1.05z"/><g id="XMLID_29_"><g id="XMLID_521_"><linearGradient id="XMLID_119_" gradientUnits="userSpaceOnUse" x1="42.603" y1="-28.432" x2="179.465" y2="108.43"><stop offset="0" stop-color="#f8ea90"/><stop offset=".098" stop-color="#f9e86a"/><stop offset=".202" stop-color="#f9e64a"/><stop offset=".316" stop-color="#fae42f"/><stop offset=".439" stop-color="#fae31a"/><stop offset=".577" stop-color="#fbe20b"/><stop offset=".741" stop-color="#fbe103"/><stop offset="1" stop-color="#fbe100"/></linearGradient><path id="XMLID_522_" class="st26" d="M0 75.43c.64.04 1.25.06 1.84.06 4.93 0 8.31-1.43 10.47-3.67 1.34-1.4 2.22-3.12 2.78-4.98L.2 68.77 0 75.43zm6.2-26.35l10.1-1.33.13-4.25-10.1 1.43-.13 4.15zm.3-9.84l10.1-1.54.94-31.01H7.48L6.5 39.24zm15.72 26.68l-2.69 14.82 9.9-.94 2.08-12.64h9.67l1.18 11.41 9.62-.92-1.86-15.35-27.9 3.62zm16.67-21.14l8.96-1.18-.54-4.46-8.87 1.25.45 4.39zm-3.07-4.02l-9.26 1.31-.81 4.44 9.32-1.22.75-4.53zm1.27-7.43h.57l.15 1.13 8.77-1.34-2.45-20.19H31.85L27.66 36l9.18-1.4.25-1.27zm37.32 27.46c-.03 1.04-.17 1.86-.47 2.51-.49 1.41-1.38 2.51-3.5 2.51-.85 0-1.49-.28-1.93-.73-.9-1.01-1.43-2.31-1.45-4.28l.02-.68-10.05 1.3c.07 2.53.53 4.84 1.41 6.81.79 1.86 1.95 3.6 3.78 4.98 1.79 1.49 4.39 2.34 7.73 2.34 3.36 0 5.88-.84 7.79-2.34 1.91-1.38 3.26-3.13 4.16-4.98 1.08-2.14 1.72-4.65 1.89-7.43l.09-2.86-9.42 1.22-.05 1.63zM67.8 36.25l-10.1 1.42-.14 4.65L67.66 41l.14-4.75zM79.7 8.26c-1.82-1.41-4.28-2.34-7.64-2.34-3.34 0-5.99.93-7.87 2.34-1.91 1.38-3.18 3.24-4.08 5.1-1.08 2.11-1.72 4.62-1.89 7.32l-.33 10.72L68 29.86l.28-9.17c.11-.93.22-1.77.53-2.51.52-1.21 1.38-2.51 3.16-2.51 1.02 0 1.86.28 2.3.73.98 1.13 1.42 2.42 1.37 4.28l-.24 8.05 9.43-1.44.2-6.61c0-2.7-.49-5.21-1.45-7.32-.81-1.86-2.05-3.72-3.88-5.1zm26.41 15.78l9.98-1.52 4.23-9.58h-9.78l-4.43 11.1zm-14.82-11.1l-.41 13.43 10.08-1.54.36-11.89H91.29zm19.13 22.42l2.41-5.46-9.6 1.35-1.75 4.38-.42.97 9.36-1.23v-.01zM89.44 74.08l10.06-.96.49-16.16.54-1.19-10.58 1.37-.51 16.94zm14.96-18.81l3.5 17.05 9.64-.92-3.43-17.39-9.71 1.26zM90.53 37.99l10.07-1.32.15-5.07-10.08 1.42-.14 4.97zm35.02-4.6l10.07-1.32.16-5.41-10.08 1.42-.15 5.31zm17.77-7.79c0 .6.01 1.18-.01 1.84a35.17 35.17 0 0 1-.28 3.65l10.26-1.35c.09-.85.15-1.74.18-2.67.03-1.01.02-1.98-.03-2.9l-10.12 1.43zm-18.91 45.15l10.06-.96.56-18.49-10.07 1.31-.55 18.14zm23.95-59.81c-3.24-3.15-7.59-4.25-11.97-4.25h-10.03l-.43 14.33L136 19.48l.08-2.6c2.62 0 4.37.57 5.51 1.75l10.54-1.61c-.9-2.54-2.19-4.55-3.77-6.08zm9.99 12.54c-.26 1.1-.44 2.26-.53 3.45l-.07 2.23 10.1-1.33.03-.9c.03-.93.14-1.77.44-2.51.4-1.21 1.29-2.51 3.04-2.51.85 0 1.57.28 2.04.73.9 1.13 1.23 2.42 1.17 4.28v.01l9.92-1.3c-.13-2.06-.49-4-1.2-5.69l-24.94 3.54zm-1.75 43.59c0 .21.02.41.03.61l10.04-.96.59-19.6-10.1 1.31-.56 18.64zm16.79-.99l10.06-.96.61-20.18-10.07 1.31-.6 19.83zm14-54.43l29.16-4.45.02-.51h-29.03l-.15 4.96zM195.3 64l10.06-.96.64-20.94-10.07 1.31L195.3 64zm1.21-39.93l10.07-1.32.18-5.78h9.5l.05-1.66-19.61 2.77-.19 5.99zm24.39 37.49l6.01-.57 1.77-21.83-8.21 1.06.43 21.34zm-.95-46.77l.12 6.18 10.18-1.34.52-6.37-10.82 1.53z"/></g></g></g><g id="XMLID_9_"><path id="XMLID_27_" class="st27" d="M6.13 64.98c.82-.95 1.25-2.36 1.31-4.32L9.03 8.28h6.54c.58-.51 1.14-1.03 1.67-1.59H7.48L5.85 60.62c-.05 1.58-.36 2.68-.92 3.32-.97 1.23-2.16 1.76-3.65 1.76-.31 0-.64-.02-.98-.07v.06c.53.53 1.08 1.05 1.63 1.57 1.73-.15 3.12-.91 4.2-2.28z"/><path id="XMLID_26_" class="st27" d="M43.47 13.41c.16-.16.33-.31.49-.47H31.85L19.47 81.06c.68-.72 1.35-1.45 2.01-2.18l11.7-64.35h9.08c.4-.4.84-.77 1.21-1.12z"/><path id="XMLID_25_" class="st27" d="M44 79l-1.25-12.01-.12-1.12c-.49.48-.98.95-1.45 1.44l1.38 13.34c.5-.55.97-1.1 1.44-1.65z"/><path id="XMLID_24_" class="st27" d="M41.69 56.42l-2.24-21.56-.23-1.75-.14-1.05c-.39.36-.8.69-1.21 1.03-.05.11-.11.22-.15.34-.01.03-.04.04-.05.06l.21 1.58 2.23 21.52h-6.62c-.63.52-1.26 1.04-1.86 1.59h10.24l-.18-1.76z"/><path id="XMLID_23_" class="st27" d="M59.63 70.4c.38-.43.75-.87 1.14-1.29-.3-.5-.63-.96-.87-1.54-.86-1.94-1.3-4.23-1.3-6.74l1.21-40.05c.15-2.48.75-4.8 1.73-6.72.97-1.98 2.14-3.46 3.61-4.52 1.76-1.32 4.16-2.02 6.92-2.02 2.74 0 4.93.66 6.69 2.02.29-.44.61-.87.92-1.29-1.82-1.39-4.27-2.32-7.61-2.32-3.34 0-5.99.93-7.87 2.34-1.91 1.38-3.18 3.24-4.08 5.1-1.08 2.11-1.72 4.62-1.89 7.32L57 60.79c0 2.79.49 5.29 1.44 7.43.32.75.72 1.48 1.19 2.18z"/><path id="XMLID_22_" class="st27" d="M70.44 65.8c-.77 0-1.34-.25-1.78-.63-.23.47-.48.93-.7 1.4.7.49 1.51.82 2.48.82 2.48 0 4.16-1.2 4.94-3.42.38-.82.58-1.82.62-3.13l.22-7.25c-.52-.59-1.02-1.2-1.54-1.8l-.27 9c-.03 1.04-.17 1.86-.47 2.51-.5 1.4-1.38 2.5-3.5 2.5z"/><path id="XMLID_21_" class="st27" d="M75.35 29.59c.6-.66 1.15-1.36 1.65-2.09l.21-6.77c.06-2.07-.45-3.69-1.6-5.14-.33.45-.63.92-.95 1.38.68 1 1.01 2.15.96 3.71l-.27 8.91z"/><path id="XMLID_20_" class="st27" d="M102.17 38.06l.28-.66.5-1.17 8.65-21.7h5.81c.96-.53 1.93-1.06 2.89-1.59h-9.78l-9.05 22.7-.25.59c.33.58.61 1.23.95 1.83z"/><path id="XMLID_19_" class="st27" d="M110.84 78.75l-5.66-27.62-.24-1.41-.23-1.33h-.12c-.42.57-.82 1.16-1.2 1.76l.21 1.24 5.99 29.19c.43-.59.83-1.21 1.25-1.83z"/><path id="XMLID_18_" class="st27" d="M90.32 78.89l.58-.74 1.93-63.62h6.15l1.68-1.59h-9.37l-2.05 67.48c.35-.52.69-1.04 1.08-1.53z"/><path id="XMLID_17_" class="st27" d="M145.03 10.39l.21-.36c.2-.34.39-.68.58-1.02-2.82-1.68-6.12-2.32-9.44-2.32h-10.03l-2.05 67.73c.56-.7 1.12-1.4 1.65-2.12l1.94-64.02h8.49c3.44 0 6.33.71 8.65 2.11z"/><path id="XMLID_16_" class="st27" d="M143.32 18.18c-.33.47-.68.93-1.02 1.39.92 1.68 1.12 4.26 1.01 7.87-.12 3.8-.47 6.31-1.62 7.77-1.17 1.57-3.13 2.13-6.17 2.14-.55.53-1.11 1.05-1.65 1.6h1.59c2.52 0 5.66-.32 7.48-2.75 1.47-1.88 1.84-4.72 1.96-8.71.12-3.94-.07-6.99-1.39-9.09-.06-.08-.13-.14-.19-.22z"/><path id="XMLID_15_" class="st27" d="M159.52 73.81c-.85-1.86-1.3-4.13-1.33-6.69l1.21-40.06c.19-2.6.77-4.86 1.77-6.76.91-1.93 2.1-3.44 3.56-4.49 1.8-1.33 4.19-2.03 6.93-2.03 2.73 0 4.97.67 6.69 2.02.6.45 1.13 1.03 1.63 1.65.33-.44.67-.87 1-1.31-.5-.58-1.04-1.13-1.67-1.61-1.79-1.41-4.28-2.34-7.64-2.34-3.33 0-5.96.93-7.87 2.34-1.91 1.38-3.18 3.24-4.05 5.1-1.11 2.11-1.72 4.62-1.92 7.32l-1.22 40.13c.03 2.76.49 5.27 1.47 7.41.71 1.72 1.78 3.33 3.38 4.68.32-.44.65-.87.97-1.31-1.24-1.07-2.21-2.36-2.91-4.05z"/><path id="XMLID_14_" class="st27" d="M175.38 22.78c-.43.46-.81.94-1.14 1.43.26.77.37 1.65.34 2.72l-1.22 40.13c-.03 1.01-.17 1.83-.44 2.51-.44 1.38-1.29 2.48-3.07 2.48-.82 0-1.46-.28-1.93-.73a.555.555 0 0 0-.06-.08c-.21.5-.43 1-.63 1.49.74.56 1.61.92 2.62.92 1.29 0 3.6-.47 4.54-3.47.34-.85.52-1.82.56-3.06l1.22-40.13c.05-1.71-.2-3.05-.79-4.21z"/><path id="XMLID_13_" class="st27" d="M198.32 17.01l.03-1.06c-.56.5-1.1 1.02-1.64 1.54l-1.73 56.92a59.7 59.7 0 0 0 1.65-1.92l1.69-55.48z"/><path id="XMLID_12_" class="st27" d="M216.12 6.69h-28.58l-.3 9.88c.52-.57 1.09-1.09 1.64-1.63l.2-6.66h25.35c.57-.53 1.14-1.05 1.69-1.59z"/><path id="XMLID_11_" class="st27" d="M222.45 59.97l-.92-45.44h7.38c.58-.52 1.16-1.05 1.72-1.59h-10.72l1 49.26c.49-.76 1.01-1.5 1.54-2.23z"/><path id="XMLID_10_" class="st27" d="M220.06 79.19l.21-6.84h6.52c.46-.53.91-1.06 1.35-1.59h-9.42l-.31 10.31h.12c.5-.64 1.02-1.26 1.53-1.88z"/></g><path id="XMLID_8_" class="st27" d="M13.75 6.44c-1.81 0-3.44-.39-4.61-1.01.38-.86 1.01-1.78 1.86-2.62-.85.84-1.78 1.47-2.65 1.83C7.72 3.47 7.33 1.82 7.33 0c0 1.81-.39 3.45-1 4.62-.86-.38-1.78-1.01-2.62-1.86.84.86 1.46 1.79 1.83 2.66-1.17.62-2.81 1.01-4.63 1.02 1.81 0 3.44.39 4.61 1.01-.38.85-1.01 1.77-1.86 2.61.86-.84 1.79-1.46 2.66-1.83.62 1.17 1.01 2.81 1.01 4.64 0-1.81.39-3.45 1-4.62.86.38 1.78 1.01 2.61 1.86-.84-.86-1.46-1.79-1.83-2.66 1.18-.62 2.82-1.01 4.64-1.01z"/><path id="XMLID_7_" class="st27" d="M82.64 51.44c-1.81 0-3.44-.39-4.61-1.01.38-.86 1.01-1.78 1.86-2.62-.85.84-1.78 1.47-2.65 1.83-.62-1.17-1.01-2.82-1.01-4.64 0 1.81-.39 3.45-1 4.62-.86-.38-1.78-1.01-2.61-1.86.84.86 1.46 1.79 1.83 2.66-1.17.62-2.81 1.01-4.63 1.02 1.81 0 3.44.39 4.61 1.01-.38.86-1.01 1.78-1.86 2.62.85-.84 1.78-1.47 2.65-1.83.62 1.17 1.01 2.81 1.01 4.64 0-1.81.39-3.45 1-4.62.86.38 1.78 1.01 2.61 1.86-.84-.86-1.46-1.79-1.83-2.66 1.17-.63 2.81-1.02 4.63-1.02z"/><path id="XMLID_6_" class="st27" d="M172.11 12.94c-1.81 0-3.44-.39-4.61-1.01.38-.86 1.01-1.78 1.86-2.62-.85.84-1.78 1.47-2.65 1.83-.62-1.17-1.01-2.82-1.01-4.64 0 1.81-.39 3.45-1 4.62-.86-.38-1.78-1.01-2.61-1.86.84.86 1.46 1.79 1.83 2.66-1.17.62-2.81 1.01-4.63 1.02 1.81 0 3.44.39 4.61 1.01-.38.86-1.01 1.78-1.86 2.62.85-.84 1.78-1.47 2.65-1.83.62 1.17 1.01 2.81 1.01 4.64 0-1.81.39-3.45 1-4.62.86.38 1.78 1.01 2.61 1.86-.84-.86-1.46-1.79-1.83-2.66 1.17-.63 2.81-1.02 4.63-1.02z"/><path id="XMLID_5_" class="st27" d="M226.37 70.76c-1.81 0-3.44-.39-4.61-1.01.38-.86 1.01-1.78 1.86-2.62-.85.84-1.78 1.47-2.65 1.83-.62-1.17-1.01-2.82-1.01-4.64 0 1.81-.39 3.45-1 4.62-.86-.38-1.78-1.01-2.61-1.86.84.86 1.46 1.79 1.83 2.66-1.17.62-2.81 1.01-4.63 1.02 1.81 0 3.44.39 4.61 1.01-.38.86-1.01 1.78-1.86 2.62.85-.84 1.78-1.47 2.65-1.83.62 1.17 1.01 2.81 1.01 4.64 0-1.81.39-3.45 1-4.62.86.38 1.78 1.01 2.61 1.86-.84-.86-1.46-1.79-1.83-2.66 1.17-.63 2.81-1.02 4.63-1.02z"/><path id="XMLID_4_" class="st27" d="M132.34 39.8c-1.81 0-3.44-.39-4.61-1.01.38-.86 1.01-1.78 1.86-2.62-.85.84-1.78 1.47-2.65 1.83-.62-1.17-1.01-2.82-1.01-4.64 0 1.81-.39 3.45-1 4.62-.86-.38-1.78-1.01-2.61-1.86.84.86 1.46 1.79 1.83 2.66-1.17.62-2.81 1.01-4.63 1.02 1.81 0 3.44.39 4.61 1.01-.38.86-1.01 1.78-1.86 2.62.85-.84 1.78-1.47 2.65-1.83.62 1.17 1.01 2.81 1.01 4.64 0-1.81.39-3.45 1-4.62.86.38 1.78 1.01 2.61 1.86-.84-.86-1.46-1.79-1.83-2.66 1.17-.63 2.81-1.02 4.63-1.02z"/><path id="XMLID_3_" class="st27" d="M30.38 61.78c-1.81 0-3.44-.39-4.61-1.01.38-.86 1.01-1.78 1.86-2.62-.85.84-1.78 1.47-2.65 1.83-.62-1.17-1.01-2.82-1.01-4.64 0 1.81-.39 3.45-1 4.62-.86-.38-1.78-1.01-2.61-1.86.84.86 1.46 1.79 1.83 2.66-1.17.62-2.81 1.01-4.63 1.02 1.81 0 3.44.39 4.61 1.01-.38.86-1.01 1.78-1.86 2.62.85-.84 1.78-1.47 2.65-1.83.62 1.17 1.01 2.81 1.01 4.64 0-1.81.39-3.45 1-4.62.86.38 1.78 1.01 2.61 1.86-.84-.86-1.46-1.79-1.83-2.66 1.17-.62 2.81-1.01 4.63-1.02z"/></g></svg>