<?xml version="1.0" encoding="UTF-8"?>
<svg width="74px" height="74px" viewBox="0 0 74 74" version="1.1" xmlns="http://www.w3.org/2000/svg" xmlns:xlink="http://www.w3.org/1999/xlink">
    <!-- Generator: Sketch 49.3 (51167) - http://www.bohemiancoding.com/sketch -->
    <title>Home Button / Rizk Logo</title>
    <desc>Created with Sketch.</desc>
    <defs>
        <circle id="path-1" cx="37" cy="37" r="37"></circle>
        <filter x="-10.1%" y="-10.1%" width="120.3%" height="120.3%" filterUnits="objectBoundingBox" id="filter-2">
            <feOffset dx="0" dy="0" in="SourceAlpha" result="shadowOffsetOuter1"></feOffset>
            <feGaussianBlur stdDeviation="2.5" in="shadowOffsetOuter1" result="shadowBlurOuter1"></feGaussianBlur>
            <feColorMatrix values="0 0 0 0 0.0941176471   0 0 0 0 0.0941176471   0 0 0 0 0.0941176471  0 0 0 0.384369339 0" type="matrix" in="shadowBlurOuter1"></feColorMatrix>
        </filter>
    </defs>
    <g id="Home-Button-/-Rizk-Logo" stroke="none" stroke-width="1" fill="none" fill-rule="evenodd">
        <g id="Oval">
            <use fill="black" fill-opacity="1" filter="url(#filter-2)" xlink:href="#path-1"></use>
            <use fill="#EF4136" fill-rule="evenodd" xlink:href="#path-1"></use>
        </g>
        <g id="Page-1" transform="translate(20.000000, 22.000000)" fill="#F6E000">
            <path d="M18.7005814,6.8393074 C19.7732879,6.81126761 20.3088346,6.79764827 21.3823477,6.77121075 C21.4210619,6.77040961 21.4597761,6.76960848 21.4992969,6.76960848 C22.2227689,6.76960848 22.9559194,6.93304044 23.4027461,7.30877374 C23.6560016,7.52267735 23.8197305,7.84233105 23.8794149,8.07065512 C23.9399059,8.2989792 23.9657153,8.55694534 23.959263,8.84215015 C23.9552302,8.98395141 23.925388,9.18023 23.8689298,9.43018478 C23.8132781,9.68174183 23.7237515,9.94211138 23.6011564,10.2128957 C23.4777549,10.4844812 23.3212849,10.7400439 23.1341662,10.9779817 C22.9462409,11.2175216 22.7260538,11.4162036 22.5002208,11.5123401 C21.7872339,11.8207779 20.9177771,11.9593746 20.0563857,11.9986303 C18.7852688,12.0595167 18.1489038,12.0891588 16.8761738,12.1508464 C17.4802769,10.3811345 18.0876063,8.61062153 18.7005814,6.8393074 M14.4646005,19.2264892 C15.5260154,22.357333 16.5995284,25.4889779 17.6948182,28.6206228 C21.0589227,28.2344747 24.4254467,27.8747642 27.7943904,27.5414911 C26.6490947,24.4346815 25.5255758,21.3254684 24.412542,18.220261 C25.3102279,17.9855278 26.2627591,17.6434423 27.2661026,17.2020158 C28.2694461,16.7589869 29.261498,16.1757591 30.0914341,15.4395141 C30.6648885,14.9315932 31.152849,14.4012405 31.5448305,13.9566094 C31.9351989,13.5119783 32.3134691,12.9936426 32.6764149,12.4008011 C33.0393607,11.8079597 33.2740656,11.1622432 33.4434404,10.5862256 C33.7918683,9.39653702 33.9967311,8.25411552 33.9999573,7.2863419 C34.0088293,5.02152733 32.6417334,0 24.5835298,0.0568807339 C17.1229769,0.109755782 9.66161756,0.0240341129 2.20106472,0 C4.28921297,1.66476289 6.39671833,3.30549167 8.52922662,4.92699315 C8.51470879,4.96945342 8.5009975,5.01111255 8.48647967,5.05277168 C5.54661858,13.7186717 2.7220936,22.3669466 0,31 C3.68914256,30.439204 7.3831244,29.9176638 11.081139,29.4393849 C12.1957859,26.0369557 13.3233375,22.6337253 14.4646005,19.2264892" id="Fill-1"></path>
        </g>
    </g>
</svg>