<svg xmlns="http://www.w3.org/2000/svg" width="15" height="16" viewBox="0 0 15 16">
    <path fill="#FFF" fill-rule="nonzero" d="M12.252 0H2.748A2.742 2.742 0 0 0 0 2.736v8.373c0 1.51 1.23 2.735 2.748 2.735h.702v1.323c0 .46.374.833.836.833a.834.834 0 0 0 .836-.833c0-.129.105-.233.235-.233s.235.104.235.233c0 .46.375.833.836.833a.834.834 0 0 0 .837-.833c0-.129.105-.233.235-.233s.234.104.235.232v.001c0 .46.374.833.836.833a.834.834 0 0 0 .837-.832c0-.13.104-.234.235-.234.13 0 .234.104.234.234 0 .46.375.832.837.832a.834.834 0 0 0 .836-.832v-1.323h.702A2.742 2.742 0 0 0 15 11.109V2.736C15 1.226 13.77 0 12.252 0zm-5.75 12.25l.773-.77a.319.319 0 0 1 .45 0l.76.757c.12.119.14.314.03.443a.317.317 0 0 1-.081.065H8.11a.313.313 0 0 1-.062-.047l-.355-.352a.275.275 0 0 0-.388 0l-.342.34a.343.343 0 0 1-.083.06h-.317a.316.316 0 0 1-.063-.495zM2.153 9.41c0-1.154.94-2.09 2.1-2.09 1.16 0 2.099.936 2.099 2.09s-.94 2.09-2.1 2.09c-1.16 0-2.1-.936-2.1-2.09zm8.592 2.09c-1.16 0-2.1-.936-2.1-2.09s.94-2.09 2.1-2.09c1.16 0 2.1.936 2.1 2.09s-.94 2.09-2.1 2.09z"/>
</svg>
