<svg width="159" height="27" viewBox="0 0 159 27" xmlns="http://www.w3.org/2000/svg" xmlns:xlink="http://www.w3.org/1999/xlink"><title>74985ABC-53D1-4E8E-BABD-9DE36766AF95</title><defs><path id="a" d="M158.857 13.53v13.338H0V.193h158.857z"/></defs><g fill="none" fill-rule="evenodd"><path d="M23.655 9.334a2.476 2.476 0 0 0-1.329-.36h-1.75l-1.102 3.146h2.074c.561 0 1.09-.077 1.588-.23.151-.065.286-.169.406-.31a2.245 2.245 0 0 0 .502-1.295c0-.175-.022-.334-.065-.475-.043-.142-.151-.3-.324-.476m86.572 6.051l.187-4.485-2.693 4.476zM93.731 9.14l-1.41-.006-.96 2.937 1.488.006c1.174.004 2.168-.665 2.342-1.76.125-.798-.546-1.174-1.46-1.177" fill="#F5DF03"/><g transform="translate(0 .116)"><mask id="b" fill="#fff"><use xlink:href="#a"/></mask><path d="M149.38 9.441l-6.63-.025-.6 1.817 6.263.024-1.435 4.456-6.264-.024-.62 1.942 6.89.026-1.47 4.505-12.58-.048 5.563-17.175 12.345.047-1.462 4.455zm-20.178.098c-1.383-.005-2.576.439-3.58 1.332-1.003.894-1.598 2.013-1.807 3.333-.299 1.893.877 3.044 2.887 3.051 1.696.007 3.24-.51 4.633-1.552l.196 4.536c-1.925 1.439-4.231 2.153-6.867 2.143-2.375-.01-4.182-.64-5.473-1.89-1.287-1.276-1.742-3.023-1.391-5.24.488-3.088 1.908-5.624 4.26-7.61 2.354-2.009 5.121-2.995 8.332-2.983.965.004 1.99.132 3.016.41 1.053.278 1.8.68 2.26 1.23l-3.078 4.773c-.772-.9-2.135-1.528-3.388-1.533zM109.89 22.022l.121-2.417-4.88-.019-1.453 2.412-5.95-.022v-.002l-6.12-.024-.898-5.71-.705-.003-1.842 5.7-5.715-.022 2.38-7.352H74.753l-.085-.325 1.01-1.092h9.61l.891-2.75h-7.954l1.312-1.415h7.101l.91-2.812H82.14l1.312-1.416h4.555l.004-.013 7.542.029c3.21.012 6.189.996 5.622 4.582-.406 2.566-2.2 4.827-4.776 6.088l1.655 6.054 11.265-16.67 6.317.025.466 17.198-6.212-.024zm-42.718-.093l-1.848-8.108-2.852 8.108h-7.227l6.158-17.157h7.098L66.07 11.68l6.482-6.908h7.876l-8.2 8.854 2.172 8.303h-7.228zm-13.947 0h-15.98l1.459-4.087 10.015-8.984h-6.742l1.46-4.086h15.978l-1.491 4.086-9.983 8.984h6.742l-1.458 4.087zm-25.022 0l6.208-17.151 7.049-.006-6.03 17.157h-7.227zm-1.34 0h-6.579l-2.269-5.806-2.042 5.806H8.746l5.153-14.336-4.214-2.821h14.618c.843 0 1.588.092 2.236.276.649.184 1.188.378 1.621.583a6.74 6.74 0 0 1 1.329.86c.345.454.6.892.762 1.313.162.422.27.94.324 1.557.053.616-.049 1.314-.308 2.092a3.68 3.68 0 0 1-.47 1.135 6.289 6.289 0 0 1-.713.957c-.249.27-.557.567-.924.892a6.808 6.808 0 0 1-1.815 1.005c-.648.238-1.264.41-1.847.519l2.366 5.968zM9.322.193L0 26.868h150.094L158.857.193H9.32z" fill="#FFE500" mask="url(#b)"/></g></g></svg>