<svg id="Layer_1" xmlns="http://www.w3.org/2000/svg" width="300.5" height="255.1" viewBox="0 0 300.5 255.1"><style>.st0{fill:url(#XMLID_110_)}.st1{fill:#ef4136}.st2,.st3{stroke:#fff;fill:none;stroke-width:14;stroke-miterlimit:10}.st3{stroke:#000}.st4{fill:#20140f}.st5{fill:url(#XMLID_111_)}.st6{fill:url(#XMLID_112_)}.st7{opacity:.2}.st8{fill:#1a1a1a}.st9{fill:#414042}.st10{opacity:.58}.st11{fill:#fff}.st12{fill:none}.st13{fill:#4d4d4d}.st14{fill:#939598}.st15{fill:#ccc}</style><g id="XMLID_61_"><linearGradient id="XMLID_110_" gradientUnits="userSpaceOnUse" x1="149.045" y1="246.804" x2="149.045" y2="5.938"><stop offset="0" stop-color="#a7a9ac"/><stop offset=".144" stop-color="#bcbec0"/><stop offset=".318" stop-color="#cfd0d2"/><stop offset=".507" stop-color="#dcddde"/><stop offset=".718" stop-color="#e4e5e6"/><stop offset="1" stop-color="#e6e7e8"/></linearGradient><path id="XMLID_59_" class="st0" d="M253 246.5c24.3-25.5 39.1-60 39.1-98 0-78.7-64-142.6-143.1-142.6S6 69.8 6 148.5c0 38.1 15 72.7 39.4 98.3h207.3l.3-.3z"/><g id="XMLID_252_"><path id="XMLID_256_" class="st1" d="M140.5 123.4l-10.9 17.4H80.4l-2.6-14.3 23.1-19.4c3.9-3.3 6.5-5.8 7.8-7.8 1.3-1.9 1.9-3.9 1.9-6 0-4.1-2.8-6.1-8.2-6.1-5.3 0-12 2.8-16.9 7.7L76.8 79c.5-.5 1.1-1.2 4.7-3.4 1.8-1.1 3.8-2 5.7-2.9 4.1-1.7 11.1-3.5 17.8-3.5 17.5 0 27.7 8.4 27.7 21 0 4.8-1.6 9.3-3.2 12.1-.7 1.3-1.8 2.9-3.6 4.7-1.7 1.7-3 3-3.8 3.7l-4.3 3.6-11.3 9.2h34z"/><path id="XMLID_253_" class="st1" d="M192.9 104l23.6 36.8h-27.7l-11.3-22.5-11.3 22.5h-27.7l23.6-36.8-22.4-33.7h27.7l10.1 18.9 10-18.9h27.7L192.9 104z"/></g><ellipse id="XMLID_52_" class="st4" cx="151.6" cy="145.8" rx="13.6" ry="13.5"/><g id="XMLID_150_"><g id="XMLID_199_"><linearGradient id="XMLID_111_" gradientUnits="userSpaceOnUse" x1="146.298" y1="219.693" x2="146.298" y2="69.198"><stop offset="0" stop-color="#c12433"/><stop offset=".144" stop-color="#cd2c34"/><stop offset=".387" stop-color="#de3835"/><stop offset=".656" stop-color="#ea3f36"/><stop offset="1" stop-color="#ef4136"/></linearGradient><path id="XMLID_200_" class="st5" d="M110.1 201.4s.2 4.6-3.1 4.6c-3.3 0-3.1-4.6-3.1-4.6v-49.9h-9.3v49.9s-.1 13.6 12.3 13.6 12.3-13.6 12.3-13.6v-49.9h-9.3v49.9zm41-27c0-11.8-4.8-18.1-15.8-18.1H126V219h9.3v-26.5h2.5l4.8 26.5h9.3l-5.9-30.4c3.5-2.4 5.1-8 5.1-14.2zm-15.8 9.6v-18.6c2.6 0 6.9.3 6.9 9.3s-4.3 9.3-6.9 9.3zm-70.9-20.6h8.7v53.3h9.3v-53.3h8.7v-9.5H64.4v9.5zm135.5-7.8c-12.4 0-12.3 13.6-12.3 13.6v37s-.1 13.6 12.3 13.6 12.3-13.6 12.3-13.6v-37c.1-.1.2-13.6-12.3-13.6zm0 55.1c-3.3 0-3.1-4.6-3.1-4.6v-37s-.2-4.6 3.1-4.6c3.3 0 3.1 4.6 3.1 4.6v37s.2 4.6-3.1 4.6zm-23.6-29.6c4.5-3.8 5.7-7.2 5.7-13 0-12.5-5.8-16.6-16.9-16.6H157v62.8h11.4c11.1-.4 14.3-8.5 14.3-17.8 0-12.5-6.4-15.4-6.4-15.4zm-10 24v-19.3c1.7 0 6.9-.7 6.9 9.6s-5.2 9.7-6.9 9.7zm0-27.7v-16.7c1.7 0 6.9-.3 6.9 8.4-.1 8.5-5.2 8.3-6.9 8.3zm52.4 36.9h9v-9.5h-9v9.5zm7.2-16.9l2.3-45.8h-10l2.3 45.8h5.4zM102.4 87.1c5.4 0 8.2 2 8.2 6.1 0 2.1-.6 4.1-1.9 6-1.3 1.9-3.9 4.5-7.8 7.8l-23.1 19.4 2.6 14.3h49.2l10.9-17.4h-34l11.3-9.2 4.3-3.6c.8-.7 2.1-1.9 3.8-3.7 1.7-1.8 2.9-3.4 3.6-4.7 1.5-2.8 3.2-7.3 3.2-12.1 0-12.6-10.2-21-27.7-21-6.7 0-13.6 1.7-17.8 3.5-1.9.8-3.9 1.7-5.7 2.9-3.6 2.1-4.2 2.9-4.7 3.4l8.7 15.9c4.9-4.8 11.6-7.6 16.9-7.6zm112.8-16.9h-27.7l-10 18.9-10.1-18.9h-27.7l22.4 33.7-23.6 36.8h27.7l11.3-22.5 11.3 22.5h27.7L192.9 104l22.3-33.8z"/></g></g><g id="XMLID_95_"><g id="XMLID_180_"><linearGradient id="XMLID_112_" gradientUnits="userSpaceOnUse" x1="134.841" y1="219.138" x2="134.841" y2="23.599"><stop offset="0"/><stop offset=".202" stop-color="#3c3c3d"/><stop offset=".422" stop-color="#4d4d4f"/><stop offset=".67" stop-color="#555658"/><stop offset="1" stop-color="#58595b"/></linearGradient><path id="XMLID_181_" class="st6" d="M50.8 210l-4 2.6-4 2.6c.9 1.4 1.8 2.7 2.7 4.1l3.4-2.4 4.4-3c-.8-1.4-1.7-2.7-2.5-3.9zm-16.2-42.1c-.3-1.5-.5-3-.7-4.5l-4.9.6-4.6.6c.2 1.6.5 3.2.7 4.9l4.7-.8 4.8-.8zM48 91.3l-4.1-2.4-4.1-2.4c-.8 1.4-1.6 2.9-2.4 4.3l4.2 2.2 13.7 7.1c.6-1.2 1.3-2.4 2-3.6L48 91.3zm3.4 96.5l-1.5-3.9-10.1 3.7-4.5 1.6-4.5 1.6c.6 1.5 1.2 3.1 1.8 4.6l5-2 3.8-1.5 10-4.1zm-14.6-69.3c.4-1.5.8-2.9 1.3-4.4l-4.6-1.4-4.6-1.4c-.5 1.6-.9 3.1-1.4 4.7l5.6 1.5 3.7 1zm18.8-53.8c-1.1 1.2-2.2 2.5-3.2 3.7l3.7 3 3.7 3c1-1.2 2-2.3 3-3.4l-3.1-2.8-4.1-3.5zM33 143.1l.3-4.5-4.7-.4-4.7-.4c-.1 1.6-.2 3.3-.3 4.9l6.3.3 3.1.1zM199.9 34.6l-2 4.5-1.9 4.2c1.4.6 2.8 1.3 4.1 2l2.1-4.3 2.1-4.3c-1.4-.7-2.9-1.4-4.4-2.1zM75.8 46.8c-1.3 1-2.7 1.9-4 2.9l5.8 7.5 3.6-2.7-2.8-3.9-2.6-3.8zm97.4-15.9l-1 4.7c1.5.3 3 .6 4.4 1l1.2-4.6 1.2-4.6c-1.6-.4-3.2-.8-4.8-1.1l-1 4.6zm73 39.5c-1-1.3-2.1-2.5-3.1-3.8l-3.6 3.1-3.6 3.1c1 1.1 2 2.3 2.9 3.5l3.5-2.8 3.9-3.1zm-23-22.1l-3.6 4.8-2.1 2.9c1.2.9 2.4 1.8 3.6 2.8l3-3.7 3-3.7c-1.2-1.1-2.5-2.1-3.9-3.1zM99.4 33.6c-1.5.6-3 1.3-4.5 2l.7 1.6 3.3 7c1.4-.6 2.8-1.3 4.2-1.9l-1.9-4.4-1.8-4.3zm25.9-7.8c-1.6.3-3.2.6-4.8 1l1.1 4.6 1.1 4.6 4.5-.9-.9-4.9-1-4.4zm22 2.6v4.7l.1 10.7h4.1l.3-10.7.1-4.7.1-4.7c-1.6 0-3.3-.1-4.9 0l.2 4.7z"/></g></g><path id="XMLID_23_" class="st4" d="M137.6 164.4l-7.9-12.6 118.2-65.4z"/><path id="XMLID_22_" class="st7" d="M250.2 89.7l-92 49c-2-1.1-4.2-1.7-6.6-1.7-7.1 0-13 5.5-13.5 12.5l-7 3.8 7.8 12.7 5.7-3.9c2.1 1.3 4.5 2 7.1 2 7.5 0 13.6-6.1 13.6-13.5 0-.8-.1-1.7-.3-2.4l85.2-58.5z"/><g id="XMLID_91_"><path id="XMLID_21_" class="st8" d="M129.7 151.8l4 6.4 108.5-68.6z"/></g><g id="XMLID_88_"><path id="XMLID_20_" class="st9" d="M151.6 132.2c-7.2 0-13 5.5-13.5 12.6l25.3-5.8c-2.4-4-6.8-6.8-11.8-6.8z"/><path id="XMLID_19_" class="st4" d="M151.6 159.3c7.5 0 13.6-6.1 13.6-13.5 0-2.5-.7-4.8-1.8-6.8l-25.3 5.8v1c-.1 7.5 6 13.5 13.5 13.5z"/></g><g id="XMLID_86_" class="st10"><path id="XMLID_18_" class="st11" d="M191.8 12.4c-13.5-4.2-27.9-6.5-42.8-6.5C70 5.9 6 69.8 6 148.5c0 6.2.4 12.3 1.2 18.3 26.6-8.6 55.1-22.3 82.8-40.9 50.9-34 87.4-76.5 101.8-113.5z"/></g><g id="XMLID_80_"><path id="XMLID_17_" class="st12" d="M17 123.7c-1.8 8.8-2.7 17.9-2.7 27.2 0 34.4 12.8 67.1 36 92.3h202.2l.2-.2c23.2-25.2 35.9-57.9 35.9-92.2 0-75.3-61.5-136.6-137.1-136.6-1.4 0-2.7.1-4.1.1C82.9 16.2 29.5 62.6 17 123.7z"/><path id="XMLID_16_" class="st8" d="M252.5 243.2H50.4l-5.6 11.5.4.4h212.4l.3-.3-5.2-11.8c-.1.1-.1.2-.2.2z"/><path id="XMLID_15_" class="st8" d="M151.4 2.4c-.7 0-1.5 0-2.2.1.2 3.5-.5 7.5-1.8 11.9 1.3 0 2.7-.1 4.1-.1 75.6 0 137.1 61.3 137.1 136.6 0 34.3-12.7 66.9-35.9 92.2l5.2 11.8 1.8-1.9c26.3-27.7 40.8-63.9 40.8-102.1C300.5 69 233.6 2.4 151.4 2.4z"/><path id="XMLID_14_" class="st8" d="M50.4 243.2c-23.3-25.3-36-58-36-92.3 0-9.3.9-18.4 2.7-27.2-4.7.2-8.6-.5-11.7-2.2-1.9 9.5-3 19.4-3 29.5 0 38.3 14.6 74.6 41.1 102.4l1.4 1.4 5.5-11.6z"/><path id="XMLID_13_" class="st8" d="M147.4 14.4c1.4-4.4 2-8.4 1.8-11.9C78.1 3.5 19 54.3 5.3 121.4c3.1 1.7 7 2.4 11.7 2.2 12.5-61 65.9-107.4 130.4-109.2z"/></g><g id="XMLID_77_"><path id="XMLID_12_" class="st12" d="M250.3 240.7l-2.3-5.2 2.3 5.2c23.2-25.2 35.9-57.9 35.9-92.2 0-75.3-61.5-136.6-137.1-136.6S12 73.2 12 148.5c0 34.4 12.8 67.1 36 92.3l1.5-3-1.5 3h202.1c.1 0 .1-.1.2-.1z"/><path id="XMLID_11_" class="st9" d="M250.1 240.9H48l-5.6 11.5.4.4h212.4l.3-.3-5.2-11.8c-.1 0-.1.1-.2.2z"/></g><g id="XMLID_73_"><path id="XMLID_10_" class="st13" d="M.1 144c0 1.5-.1 3-.1 4.5 0 38.3 14.6 74.6 41.1 102.4l1.4 1.4 5.6-11.5H48c-23.3-25.3-36-58-36-92.3 0-1.7.1-3.3.1-4.9-4.1.4-8.1.6-12 .4z"/><path id="XMLID_9_" class="st13" d="M175.4 2.4c-1.7 3.7-3.5 7.4-5.5 11.1 65.7 10.1 116.2 66.8 116.2 135.1 0 34.3-12.7 66.9-35.9 92.2l5.2 11.8 1.8-1.9C283.5 223 298 186.8 298 148.6c.1-73-52.9-133.8-122.6-146.2z"/><path id="XMLID_8_" class="st14" d="M149 0c-.7 0-1.5 0-2.2.1-71 1-130.2 51.8-143.8 119-1.6 8.1-2.6 16.5-2.8 25 3.9.1 7.8 0 11.9-.5.3-7.6 1.1-15.1 2.6-22.3C27.1 60.2 80.5 13.9 145 12c1.3 0 2.7-.1 4.1-.1 7.1 0 14.1.5 20.9 1.6 1.9-3.7 3.8-7.4 5.5-11.1C166.9.8 158.1 0 149 0z"/></g><g id="XMLID_66_"><path id="XMLID_7_" class="st1" d="M252.2 97.3l4.3-2.1 4.3-2.1c-.7-1.5-1.5-2.9-2.3-4.3l-4.2 2.3-13.6 7.4c.7 1.2 1.3 2.4 1.9 3.7l9.6-4.9z"/><path id="XMLID_6_" class="st1" d="M246.2 186.3c-.5 1.3-1 2.5-1.6 3.8l14.2 6.2 4.4 1.9c.7-1.5 1.3-3 1.9-4.6l-4.4-1.7-14.5-5.6z"/><path id="XMLID_5_" class="st1" d="M260.8 120.7l1.4-.3 7.9-1.9c-.4-1.6-.8-3.2-1.3-4.7l-2.9.8-6.2 1.8c.3 1.4.7 2.8 1.1 4.3z"/><path id="XMLID_4_" class="st1" d="M263.9 140.8v.5c.1 1.5.2 3 .2 4.5l4.8-.1 4.8-.1c0-1.6-.1-3.3-.2-5v-.4l-4.8.3-4.8.3z"/><path id="XMLID_3_" class="st1" d="M262.7 166.2c-.2 1.5-.5 3-.8 4.5l7.2 1.4 2.1.4.9-4.8-3.9-.6-5.5-.9z"/><path id="XMLID_2_" class="st1" d="M244.6 212.3c-.8 1.3-1.7 2.5-2.6 3.7l3.5 2.6 4.2 3c1-1.3 1.9-2.7 2.8-4l-4.8-3.2-3.1-2.1z"/></g><g id="XMLID_64_"><path id="XMLID_1_" class="st15" d="M152.1 1.9c22.1 0 43.1 4.7 62.1 13.1-12.1-5.9-25.1-10.2-38.7-12.6C166.9.8 158.1 0 149 0c-.7 0-1.5 0-2.2.1-71 1-130.2 51.8-143.8 119-1.6 8.1-2.6 16.5-2.8 25 0 1.5-.1 3-.1 4.5 0 5.9.4 11.7 1.1 17.5-.5-4.8-.7-9.6-.7-14.5C.3 68.9 68.3 1.9 152.1 1.9z"/></g></g></svg>