<svg width="100" height="26" viewBox="0 0 100 26" xmlns="http://www.w3.org/2000/svg"><title>rizk-logo</title><g fill="#FFF101" fill-rule="evenodd"><path d="M1.944.03l5.158 4.174.034-.104C5.386 2.76 3.656 1.405 1.944.03"/><path d="M22.513 14.242c.824-.367 1.637-.848 2.32-1.456.47-.42.87-.86 1.19-1.226.322-.367.633-.795.93-1.286.3-.49.49-1.022.63-1.5.285-.98.454-1.925.457-2.725.006-1.873-1.115-6.02-7.73-5.975C14.19.12 8.068.048 1.945.03a290.385 290.385 0 0 0 5.19 4.07 1045.762 1045.762 0 0 0-7 21.54 409.62 409.62 0 0 1 9.096-1.29 1406.3 1406.3 0 0 1 2.778-8.436 910.752 910.752 0 0 0 2.65 7.762c2.762-.32 5.525-.617 8.29-.892a914.07 914.07 0 0 1-2.776-7.702 15.75 15.75 0 0 0 2.343-.84zM19.725 7.82a3.322 3.322 0 0 1-.603 1.28c-.154.196-.334.36-.52.44-.585.255-1.298.37-2.005.402l-2.61.125c.496-1.462.994-2.925 1.497-4.388a538.3 538.3 0 0 1 2.2-.057h.096c.595 0 1.196.133 1.562.443.208.177.343.44.392.63.05.19.07.402.065.637-.005.118-.03.28-.076.486zM32.78.105a1310.3 1310.3 0 0 0-8.3 22.533c3.036-.285 6.072-.536 9.11-.75A1649.735 1649.735 0 0 1 41.714.132L32.78.106m29.352 5.042L64.12.225C57.43.19 50.738.16 44.045.135c-.655 1.69-1.307 3.377-1.957 5.063 2.824-.026 5.65-.044 8.475-.056A500.103 500.103 0 0 0 37.69 16.506a3923 3923 0 0 0-1.967 5.238c6.71-.423 13.416-.685 20.126-.786.647-1.65 1.297-3.304 1.95-4.96-2.827.018-5.654.056-8.482.114A836.547 836.547 0 0 1 62.13 5.148M90.06.45C86.762.41 83.466.375 80.167.343c-2.778 2.793-5.56 5.562-8.338 8.318 1.08-2.78 2.164-5.565 3.247-8.36C72.1.278 69.122.256 66.145.238c-2.758 6.936-5.5 13.834-8.212 20.702a354.65 354.65 0 0 1 9.088.05c1.27-3.24 2.54-6.49 3.813-9.75.698 3.295 1.394 6.598 2.09 9.906 3.024.105 6.046.247 9.066.43-.826-3.462-1.653-6.914-2.484-10.356A924.52 924.52 0 0 0 90.06.45m2.38.777h.82v2.59h.963v-2.59h.82V.42H92.44v.807M99.138.42h-1.125l-.58 1.856-.59-1.856h-1.12l-.255 3.397h.952l.09-1.713.545 1.713h.748l.537-1.704.098 1.704h.95L99.14.42"/></g></svg>