<svg width="47" height="32" viewBox="0 0 47 32" xmlns="http://www.w3.org/2000/svg"><title>Imported Layers Copy 3</title><g fill="#F8E81C" fill-rule="evenodd"><path d="M12.9 6.356c.152-.194.3-.42.44-.677.14-.26.233-.54.298-.79.136-.52.216-1.016.217-1.438.003-.985-.528-3.17-3.664-3.147C7.288.33 4.385.29 1.48.28l2.446 2.2A604.654 604.654 0 0 0 .624 13.775a171.94 171.94 0 0 1 4.312-.68A755.19 755.19 0 0 1 6.253 8.65c.413 1.362.83 2.726 1.257 4.09 1.31-.17 2.62-.326 3.93-.47a578.19 578.19 0 0 1-1.316-4.06c.35-.1.72-.25 1.11-.442a4.18 4.18 0 0 0 1.1-.767c.223-.22.413-.45.566-.644zm-2.988-1.97a1.95 1.95 0 0 1-.103.34 1.69 1.69 0 0 1-.183.333.692.692 0 0 1-.247.232c-.277.134-.616.195-.95.212l-1.24.066.71-2.312 1.045-.03h.046c.282 0 .567.07.74.235.1.092.163.232.187.33a1.348 1.348 0 0 1-.005.593zM16.103.32a740.408 740.408 0 0 0-3.935 11.872c1.44-.15 2.88-.28 4.32-.394A944.455 944.455 0 0 1 20.34.334L16.103.32m13.919 2.658l.942-2.594C27.79.364 24.618.35 21.446.337c-.312.89-.62 1.78-.93 2.667 1.34-.013 2.68-.023 4.02-.03a248.8 248.8 0 0 0-6.105 5.988l-.932 2.76a180.2 180.2 0 0 1 9.544-.414l.926-2.614c-1.34.01-2.682.03-4.022.06 2-1.947 4.03-3.865 6.076-5.776M34.62 4.83c.513-1.466 1.027-2.935 1.54-4.406C34.75.41 33.337.4 31.925.39A5596.976 5596.976 0 0 0 28.03 11.3a162.613 162.613 0 0 1 4.31.026l1.807-5.136c.33 1.736.662 3.476.992 5.22 1.432.054 2.865.128 4.297.224-.39-1.823-.784-3.642-1.178-5.455A462.97 462.97 0 0 0 43.264.502c-1.564-.02-3.127-.04-4.69-.056A941.01 941.01 0 0 1 34.62 4.83M44.35.39v.313h.287v1.005h.336V.703h.286V.39h-.91m2.339 0h-.392l-.203.72-.206-.72h-.39l-.09 1.318h.333l.03-.665.19.665h.262l.188-.662.034.662h.332L46.688.39M34.29 13.402a173.33 173.33 0 0 0-28.687 1.364c-1.64.214-3.278.452-4.917.713v14.266a173.827 173.827 0 0 1 39.636 1.764V13.714c-2.015-.14-4.025-.242-6.034-.313zM6.48 27.627c-.645.034-.967.052-1.61.093V16.59c.643-.085.965-.126 1.61-.203v11.24zm5.894-.204c-.573.01-.86.016-1.433.03-.517-1.972-1.04-3.943-1.567-5.912l-.135-.518-.09.007v6.477c-.59.022-.885.034-1.475.06v-11.32c.572-.064.86-.095 1.432-.154.527 1.947 1.05 3.897 1.567 5.848l.135.527.088-.005v-6.545c.59-.056.887-.082 1.478-.13v11.636zm3.077-7.95c.24.44.553.897.866 1.39.373.59.746 1.2 1.03 1.8.284.598.478 1.22.478 1.872 0 .8-.12 1.55-.462 2.102-.344.55-.898.9-1.78.895-1.03-.004-1.612-.416-1.94-1.05-.33-.633-.404-1.474-.404-2.348.633-.084.95-.123 1.583-.2 0 .498.015.994.134 1.362.104.384.284.64.627.64.478-.003.658-.553.658-1.314 0-.388-.18-.84-.42-1.305-.133-.223-.267-.467-.417-.7-.305-.474-.657-1.01-1.016-1.59a7.064 7.064 0 0 1-.79-1.783 3.482 3.482 0 0 1-.134-.933c-.002-.638.13-1.338.476-1.883.175-.28.406-.517.69-.697.02-.01.036-.025.055-.037a2.05 2.05 0 0 1 .882-.276c.12-.01.237-.012.346-.008.762.033 1.236.416 1.507.957.316.632.403 1.435.403 2.105-.633.086-.95.13-1.583.222 0-.39-.014-.83-.12-1.16-.072-.225-.18-.4-.325-.477a.34.34 0 0 0-.198-.045c-.418.04-.553.514-.553 1.206 0 .402.163.812.403 1.253zm4.856 8.015c-.647-.02-.97-.03-1.614-.045V15.378c.645-.03.967-.04 1.613-.064v12.174zm5.67-4.695c-.027 1.733-.128 2.905-.47 3.653-.37.81-1.043 1.13-2.206 1.15a8.3 8.3 0 0 1-.53-.01c-.507-.023-.76-.034-1.27-.054V15.277c.51-.014.763-.02 1.27-.03.187-.003.364 0 .53.006a4.17 4.17 0 0 1 .767.102c.214.05.405.118.574.207.39.202.67.51.865.95.368.826.458 2.144.474 4.108a95.32 95.32 0 0 1-.005 2.173zm4.042-2.222v2.062c-.598-.04-.896-.056-1.493-.088v3.497c.83.062 1.244.095 2.074.166v1.944a134.755 134.755 0 0 0-3.688-.313v-12.62c1.476.01 2.213.022 3.688.063v1.944a130.68 130.68 0 0 0-2.075-.067V20.5c.596.026.894.04 1.492.07zm4.504 8.004c-.334-2.255-.5-3.378-.835-5.614-.172-.015-.258-.023-.432-.036v5.503a148.89 148.89 0 0 0-1.61-.174v-12.94c.644.023.966.035 1.61.064C35.18 15.465 36 16.84 36 19.343c0 1.314-.283 2.476-.895 2.922.345 2.17.688 4.342 1.03 6.512a152.05 152.05 0 0 0-1.61-.202z"/><path d="M24.3 19.033c-.015-.576-.072-1.023-.15-1.32-.057-.22-.14-.368-.248-.467l-.012-.008a.672.672 0 0 0-.292-.14 1.514 1.514 0 0 0-.283-.038c-.062-.003-.128-.003-.196-.003v8.73a2.34 2.34 0 0 0 .38-.007.732.732 0 0 0 .342-.112c.003 0 .004-.003.006-.004a.63.63 0 0 0 .103-.092c.084-.095.15-.23.2-.417.066-.247.12-.615.14-1.1.005-.07.008-.14.01-.214.014-.59.014-1.387.014-2.403v-.37c0-.84-.002-1.516-.015-2.034m8.959-1.757v3.87c.224.018.523.005.76-.226.24-.23.434-.697.434-1.626 0-.93-.195-1.442-.433-1.706-.24-.264-.538-.298-.762-.31"/></g></svg>