<svg id="Layer_1" xmlns="http://www.w3.org/2000/svg" width="101" height="100" viewBox="0 0 101 100"><style>.st0{fill:url(#XMLID_2_)}.st1{fill:#fff}.st2{fill:#f7e102}.st3{fill:url(#XMLID_3_)}.st4{fill:url(#XMLID_4_)}.st5{fill:url(#XMLID_5_)}.st6{fill:url(#XMLID_6_)}.st7{fill:url(#XMLID_7_)}.st8{fill:url(#XMLID_8_)}</style><g id="XMLID_1169_"><linearGradient id="XMLID_2_" gradientUnits="userSpaceOnUse" x1="52.373" y1="97.083" x2="45.631" y2=".675"><stop offset="0" stop-color="#da8027"/><stop offset="1" stop-color="#f7e102"/></linearGradient><ellipse id="XMLID_1531_" class="st0" cx="49" cy="48.88" rx="48.44" ry="48.32"/><g id="XMLID_1528_"><path id="XMLID_1530_" class="st1" d="M49 .56C24.75.56 4.66 18.33 1.12 41.53L69.03 4.89A48.167 48.167 0 0 0 49 .56z"/><path id="XMLID_1529_" class="st2" d="M69.03 4.89L1.12 41.53a48.183 48.183 0 0 0 .24 16.06l80.9-43.83a48.645 48.645 0 0 0-13.23-8.87z"/></g><g id="XMLID_1524_"><linearGradient id="XMLID_3_" gradientUnits="userSpaceOnUse" x1="77.912" y1="92.591" x2="26.084" y2="9.65"><stop offset="0" stop-color="#36150f"/><stop offset="1" stop-color="#cd4327"/></linearGradient><path id="XMLID_1525_" class="st3" d="M52 2.24c-27.02 0-49 21.93-49 48.88S24.98 100 52 100s49-21.93 49-48.88S79.02 2.24 52 2.24zm0 91.78c-23.75 0-43.01-19.21-43.01-42.9 0-23.69 19.26-42.9 43.01-42.9s43.01 19.21 43.01 42.9c0 23.69-19.26 42.9-43.01 42.9z"/></g><g id="XMLID_1208_"><linearGradient id="XMLID_4_" gradientUnits="userSpaceOnUse" x1="71.959" y1="92.055" x2="26.045" y2="5.704"><stop offset="0" stop-color="#da8027"/><stop offset="1" stop-color="#f7e102"/></linearGradient><path id="XMLID_1418_" class="st4" d="M49 0C21.98 0 0 21.93 0 48.88s21.98 48.88 49 48.88 49-21.93 49-48.88S76.02 0 49 0zm0 91.78c-23.75 0-43.01-19.21-43.01-42.9 0-23.69 19.26-42.9 43.01-42.9s43.01 19.21 43.01 42.9c0 23.69-19.25 42.9-43.01 42.9z"/></g><g id="XMLID_1204_"><linearGradient id="XMLID_5_" gradientUnits="userSpaceOnUse" x1="21.801" y1="51.111" x2="78.785" y2="51.111"><stop offset="0" stop-color="#cd4327"/><stop offset="1" stop-color="#36150f"/></linearGradient><path id="XMLID_1205_" class="st5" d="M78.77 39.5c-.09-1.54-.32-2.83-.69-3.89-.37-1.05-.94-2.38-1.77-3.28-.18-.2-2.31-2.81-3.37-3.28-.05-.06-1.01-.6-2.05-1.12-1.04-.52-2.34-1.01-3.9-1.49-1.56-.47-3.37-.71-5.42-.72-10.59-.02-21.19-.05-31.78-.08-1.25 0-3.14-.73-4.4-.74.31.25 7.98 7 10.55 8.98C31.3 47.65 26.1 60.57 21.8 74.27c.17.23 2.61 2.62 2.98 3.04 5.86-.9 11.72-1.73 17.6-2.49 1.53-4.69 3.08-9.38 4.64-14.07 1.19 3.51 1.68 6.27 2.9 9.78.34.39 2.72 2.65 2.96 2.99 5.34-.62 10.69-1.19 16.04-1.72-1.82-4.95-3.6-9.91-5.37-14.86 1.43-.37 2.94-.92 4.53-1.62 1.59-.71 3.17-1.64 4.49-2.81.91-.81 1.69-1.66 2.31-2.36.62-.71 1.22-1.54 1.8-2.48.58-.95.95-1.97 1.22-2.89.54-1.92.96-3.74.87-5.28zm-18.33 1.17c-.09.4-.23.82-.43 1.25-.2.43-.44.84-.74 1.22s-.65.7-1.01.85c-1.13.49-2.51.71-3.88.78-.77.04-1.4.07-1.98.09.69-2.03 1.38-4.05 2.08-6.08 1.7-.05 2.56-.07 4.26-.11h.19c.55 0 1.09.06 1.6.19.04.27.07.56.06.88-.02.22-.06.54-.15.93z"/></g><linearGradient id="XMLID_6_" gradientUnits="userSpaceOnUse" x1="63.504" y1="70.837" x2="25.087" y2="25.053"><stop offset="0" stop-color="#da8027"/><stop offset=".005" stop-color="#da8127"/><stop offset=".313" stop-color="#e7aa17"/><stop offset=".592" stop-color="#f0c80b"/><stop offset=".83" stop-color="#f5da04"/><stop offset="1" stop-color="#f7e102"/></linearGradient><path id="XMLID_1200_" class="st6" d="M75.09 32.62c-.37-1.05-.94-2.38-1.77-3.28-.85-.93-2.14-1.64-3.18-2.15-1.04-.52-2.34-1.01-3.9-1.49-1.56-.47-3.37-.71-5.42-.72-10.59-.02-21.19-.05-31.78-.08-1.25 0-2.5-.01-3.76-.01 3.31 2.65 6.66 5.27 10.05 7.86-.02.07-.04.13-.07.2-4.67 13.82-9.15 27.61-13.48 41.38 5.86-.9 11.72-1.73 17.6-2.49 1.77-5.43 3.56-10.85 5.37-16.29 1.69 4.99 3.39 9.99 5.13 14.98 5.34-.62 10.69-1.19 16.04-1.72-1.82-4.95-3.6-9.91-5.37-14.86 1.43-.37 2.94-.92 4.53-1.62 1.59-.71 3.17-1.64 4.49-2.81.91-.81 1.69-1.66 2.31-2.36.62-.71 1.22-1.54 1.8-2.48.58-.95.95-1.97 1.22-2.89.55-1.9.98-3.72.88-5.26-.1-1.56-.33-2.86-.69-3.91zm-15.4 7.31c-.09.4-.23.82-.43 1.25-.2.43-.44.84-.74 1.22s-.65.7-1.01.85c-1.13.49-2.51.71-3.88.78-2.02.1-3.03.14-5.05.24.96-2.82 1.92-5.65 2.9-8.47 1.7-.05 2.56-.07 4.26-.11h.19c1.15 0 2.31.26 3.02.86.4.34.66.85.76 1.21.1.36.14.78.13 1.23-.01.22-.06.54-.15.94z"/><g id="XMLID_1197_"><path id="XMLID_1199_" class="st2" d="M75.09 32.62c-.25-.71-.6-1.53-1.04-2.27l-14.26 7.88c.03.24.05.49.04.76-.01.23-.05.54-.14.94-.09.4-.23.82-.43 1.25-.2.43-.44.84-.74 1.22s-.65.7-1.01.85c-1.13.49-2.51.71-3.88.78-1.91.09-2.93.14-4.74.23L27.64 56c-.7 2.16-1.4 4.31-2.09 6.46L75.59 34.8c-.12-.81-.28-1.55-.5-2.18z"/><path id="XMLID_1198_" class="st1" d="M51.48 35.8c1.7-.05 2.56-.07 4.26-.11h.09l14.86-8.21-.55-.29c-1.04-.52-2.34-1.01-3.9-1.49-1.56-.47-3.37-.71-5.42-.72-10.59-.02-21.19-.05-31.78-.08-1.25 0-2.5-.01-3.76-.01 3.31 2.65 6.66 5.27 10.05 7.86-.02.07-.04.13-.07.2-1.95 5.77-3.86 11.53-5.74 17.29l20.99-11.6c.33-.96.65-1.9.97-2.84z"/></g><g id="XMLID_1170_"><path id="XMLID_1196_" class="st1" d="M2.75 49.44c0-25.59 20.79-46.33 46.44-46.33 16.58 0 31.12 8.67 39.33 21.7l2.38-1.26C82.3 9.45 66.74 0 49 0 21.98 0 0 21.93 0 48.88c0 7.29 1.62 14.2 4.5 20.42l2.2-1.16a46.006 46.006 0 0 1-3.95-18.7z"/><linearGradient id="XMLID_7_" gradientUnits="userSpaceOnUse" x1="71.965" y1="92.052" x2="26.006" y2="5.616"><stop offset="0" stop-color="#da8027"/><stop offset="1" stop-color="#f7e102"/></linearGradient><path id="XMLID_1195_" class="st7" d="M88.52 24.82c4.5 7.13 7.11 15.57 7.11 24.62 0 25.59-20.79 46.33-46.44 46.33-18.98 0-35.29-11.37-42.49-27.64L4.5 69.3C12.27 86.08 29.29 97.76 49 97.76c27.02 0 49-21.93 49-48.88 0-9.26-2.6-17.93-7.1-25.32l-2.38 1.26z"/><linearGradient id="XMLID_8_" gradientUnits="userSpaceOnUse" x1="71.919" y1="92.196" x2="25.954" y2="5.748"><stop offset="0" stop-color="#da8027"/><stop offset="1" stop-color="#f7e102"/></linearGradient><path id="XMLID_1174_" class="st8" d="M49.19 3.11c-25.65 0-46.44 20.74-46.44 46.33 0 6.65 1.42 12.97 3.95 18.69l3.09-1.64a42.692 42.692 0 0 1-3.8-17.62c0-23.69 19.26-42.9 43.01-42.9 15.47 0 29.03 8.15 36.61 20.38l2.91-1.54C80.3 11.78 65.77 3.11 49.19 3.11z"/><path id="XMLID_1173_" class="st2" d="M75.7 82.5c-7.34 5.8-16.61 9.28-26.7 9.28-17.46 0-32.47-10.38-39.21-25.29L6.7 68.13c7.2 16.27 23.51 27.63 42.49 27.63 11.01 0 21.11-3.83 29.07-10.21-.99-.78-1.49-2.1-2.56-3.05z"/><path id="XMLID_1172_" class="st1" d="M75.7 82.5c1.07.94 1.57 2.27 2.56 3.06 2.64-2.12 5.04-4.52 7.16-7.15-1.05-.79-2.08-1.6-3.08-2.45a42.78 42.78 0 0 1-6.64 6.54z"/><path id="XMLID_1171_" class="st2" d="M88.52 24.82l-2.91 1.54a42.59 42.59 0 0 1 6.4 22.52c0 10.27-3.63 19.7-9.67 27.08.99.85 2.03 1.66 3.08 2.45 6.39-7.93 10.21-18 10.21-28.97 0-9.05-2.61-17.49-7.11-24.62z"/></g></g></svg>