<svg id="Layer_1" xmlns="http://www.w3.org/2000/svg" width="100" height="100" viewBox="-461 171 100 100"><style>.st0{fill:url(#XMLID_2_)}.st1{fill:url(#XMLID_5_)}.st2{fill:none}.st3{fill:url(#XMLID_6_)}.st4{fill:url(#SVGID_1_)}.st5{fill:url(#XMLID_7_)}</style><g id="XMLID_3_"><linearGradient id="XMLID_2_" gradientUnits="userSpaceOnUse" x1="-461" y1="201.385" x2="-368.33" y2="201.385" gradientTransform="translate(0 5.28)"><stop offset="0" stop-color="#FFF"/><stop offset="1" stop-color="#d0d2d3"/></linearGradient><path id="XMLID_112_" class="st0" d="M-411 171c-27.62 0-50 22.38-50 49.98 0 7.64 1.72 14.87 4.78 21.35l87.89-47.42C-377.11 180.58-392.94 171-411 171z"/><linearGradient id="XMLID_5_" gradientUnits="userSpaceOnUse" x1="-456.22" y1="227.675" x2="-361" y2="227.675" gradientTransform="translate(0 5.28)"><stop offset="0" stop-color="#d0d2d3"/><stop offset="1" stop-color="#a6a8ab"/></linearGradient><path id="XMLID_111_" class="st1" d="M-456.22 242.35c8.02 16.93 25.25 28.63 45.22 28.63 27.62 0 50-22.38 50-49.98 0-9.56-2.69-18.48-7.33-26.07l-87.89 47.42z"/><path id="XMLID_106_" class="st2" d="M-404.73 213.2c-.46-.39-1.19-.55-1.93-.55h-.11c-1.08.02-1.63.05-2.71.07-.62 1.8-1.24 3.6-1.84 5.41l7.15-3.85c-.02-.09-.02-.21-.05-.3-.07-.23-.25-.58-.51-.78z"/><path id="XMLID_105_" class="st2" d="M-411.34 218.13c1.29-.07 1.93-.09 3.22-.16.87-.05 1.75-.18 2.48-.5.23-.09.46-.3.64-.55s.34-.5.48-.78c.11-.27.21-.55.28-.8.05-.25.09-.46.09-.59 0-.18 0-.34-.02-.48l-7.17 3.86z"/><path id="XMLID_104_" d="M-395.03 209.32l-9.15 4.95c.02.16.02.32.02.48 0 .14-.02.34-.09.59-.05.25-.14.52-.28.8-.11.27-.28.55-.48.78-.18.25-.41.46-.64.55-.71.32-1.61.46-2.48.5-1.29.07-1.93.09-3.22.16l-13.26 7.16c-1.31 4.01-2.6 8.05-3.86 12.07 3.75-.57 7.49-1.09 11.24-1.6 1.13-3.47 2.27-6.93 3.42-10.4 1.08 3.19 2.16 6.39 3.29 9.58 3.4-.39 6.82-.75 10.25-1.09-1.17-3.17-2.3-6.34-3.42-9.49.92-.23 1.88-.59 2.9-1.03 1.01-.46 2.02-1.05 2.87-1.8.57-.52 1.08-1.05 1.47-1.51.39-.46.78-.98 1.15-1.6.37-.59.6-1.25.78-1.85.34-1.21.62-2.37.57-3.35-.07-.98-.21-1.8-.44-2.49-.18-.47-.39-.95-.64-1.41z"/><linearGradient id="XMLID_6_" gradientUnits="userSpaceOnUse" x1="-426.11" y1="210.205" x2="-394.97" y2="210.205" gradientTransform="translate(0 5.28)"><stop offset="0" stop-color="#404041"/><stop offset="1" stop-color="#333"/></linearGradient><path id="XMLID_103_" class="st3" d="M-409.39 212.74c.09-.07.23-.07.34-.07.74 0 1.47 0 2.21.02.57 0 1.19.02 1.72.25s.99.75.94 1.35c3.08-1.67 6.14-3.31 9.21-4.97-1.33-1.67-3.33-2.65-5.38-3.1-2.05-.46-4.18-.46-6.3-.46h-14.59c-1.56 0-3.33-.21-4.87.05.78.89 1.98 1.6 2.92 2.33 1.01.8 2.02 1.6 3.06 2.4.09.07.18.16.23.27.05.11 0 .23-.05.34-1.56 4.72-3.1 9.42-4.66 14.14 4.16-2.26 8.34-4.49 12.5-6.75.28-.16.55-.3.76-.55.14-.18.21-.41.3-.64.48-1.41.94-2.83 1.42-4.27.03-.11.08-.22.24-.34z"/><path id="XMLID_102_" class="st2" d="M-425.61 189.09l1.42 3.1c1.38-.64 2.8-1.16 4.25-1.6l-.97-3.26c-1.6.46-3.19 1.05-4.7 1.76z"/><path id="XMLID_101_" class="st2" d="M-434.07 194.54l2.25 2.58c1.15-1 2.37-1.92 3.63-2.74l-1.86-2.85a34.5 34.5 0 0 0-4.02 3.01z"/><path id="XMLID_100_" class="st2" d="M-437.61 198.1c-1.1 1.28-2.11 2.62-3.01 4.04l2.87 1.82c.8-1.25 1.68-2.44 2.64-3.56.05-.05.05-.07.07-.07.02 0-2.57-2.23-2.57-2.23z"/><path id="XMLID_99_" class="st2" d="M-388.62 193.88l-2.18 2.62c.74.62 1.47 1.25 2.16 1.94.23.23.44.46.67.66.07.07.48.41.48.52l2.53-2.3a37.37 37.37 0 0 0-3.66-3.44z"/><path id="XMLID_98_" class="st2" d="M-407.32 189.5c0-.02 4.5.73 4.48.84l.87-3.31c-1.63-.43-3.29-.73-4.96-.94l-.39 3.41z"/><path id="XMLID_97_" class="st2" d="M-414.65 186.08c-.25.02-.53.07-.78.09-.14.02-.25.02-.39.05-.02 0-.09 0-.11.02-.05.02-.02 0-.02.05s.02.14.02.18c.16 1.05.3 2.1.46 3.15 1.49-.21 3.03-.32 4.55-.32v-3.42c-.71 0-1.42.02-2.14.07-.56.01-1.06.06-1.59.13z"/><path id="XMLID_96_" class="st2" d="M-398.55 191.8c1.4.59 2.76 1.3 4.04 2.08l1.77-2.92a35.03 35.03 0 0 0-4.48-2.3l-1.33 3.14z"/><path id="XMLID_95_" class="st2" d="M-384.58 203.3c.07.09.11.23.18.32l3.01-1.62c-.07-.11-.11-.23-.18-.32-.96.5-2.02 1.07-3.01 1.62z"/><path id="XMLID_94_" class="st2" d="M-382.37 207.15c1.03-.5 2.05-1 3.08-1.51-.57-1.03-1.4-2.44-2.07-3.65l-3.01 1.62c.64 1.17 1.43 2.54 2 3.54z"/><path id="XMLID_93_" class="st2" d="M-442.34 225.77l-3.38.5c.25 1.67.62 3.31 1.1 4.9l3.26-.98c0-.02 0-.02-.02-.05-.41-1.5-.76-2.94-.96-4.37z"/><path id="XMLID_92_" class="st2" d="M-442.41 216.69l-3.38-.46c-.21 1.57-.32 3.17-.32 4.77v.25l3.42-.02c-.04 0 .16-4.56.28-4.54z"/><path id="XMLID_91_" class="st2" d="M-444.75 211.31l3.29.94c-.05-.02 1.47-4.31 1.56-4.27l-3.1-1.41c-.7 1.52-1.3 3.12-1.75 4.74z"/><path id="XMLID_90_" class="st2" d="M-380.3 229.35v.05c-.09.43-1.42 4.24-1.49 4.22l3.12 1.37a35.64 35.64 0 0 0 1.68-4.74l-3.29-.89c-.02-.03-.02-.03-.02-.01z"/><path id="XMLID_89_" class="st2" d="M-401.51 251.27l1.01 3.26c1.61-.5 3.17-1.12 4.69-1.85l-1.47-3.08c-1.36.67-2.78 1.24-4.23 1.67z"/><path id="XMLID_88_" class="st2" d="M-393.33 247.37l1.91 2.83c1.4-.94 2.73-1.96 3.98-3.08l-2.27-2.53c-1.14 1-2.36 1.93-3.62 2.78z"/><path id="XMLID_87_" class="st2" d="M-386.57 241.3l2.62 2.19c1.08-1.28 2.07-2.67 2.94-4.08l-2.9-1.8c-.8 1.3-1.7 2.53-2.66 3.69z"/><path id="XMLID_86_" class="st2" d="M-379.2 220.29c.02 1.6-.05 3.08-.23 4.54l3.4.41c.16-1.41.25-2.83.25-4.27v-.75l-3.42.07z"/><path id="XMLID_85_" class="st2" d="M-431.63 245.02l-.02-.02-.02-.02c-1.17-.98-2.11-1.96-3.01-2.97l-2.55 2.26c1.1 1.25 2.32 2.44 3.61 3.51l2.21-2.6c-.05-.05-.09-.07-.14-.11-.06-.01-.08-.03-.08-.05z"/><path id="XMLID_84_" class="st2" d="M-406.15 252.34c-.07 0-.07.02-.09.02-1.42.21-2.83.32-4.25.34l.05 3.42c1.68-.02 3.38-.16 5.03-.43l-.53-3.38c-.19.03-.21.03-.21.03z"/><path id="XMLID_83_" class="st2" d="M-423.94 249.92s-.02 0-.02-.02c0 0-.02 0-.02-.02 0 0-.02 0-.02-.02 0 0-.02 0-.02-.02h-.3s-.02 0-.02-.02c0 0-.02 0-.02-.02 0 0-.02 0-.02-.02 0 0-.02 0-.02-.02 0 0-.02 0-.02-.02-1.06-.5-2.07-1.07-3.06-1.69l-1.82 2.9c1.42.89 2.92 1.69 4.46 2.37l1.38-3.12c-.36-.23-.41-.25-.48-.28z"/><path id="XMLID_82_" class="st2" d="M-376.23 215.23c-.28-1.67-.67-3.31-1.19-4.9l-3.26 1.05c.46 1.44.83 2.92 1.08 4.43l3.37-.58z"/><path id="XMLID_81_" class="st2" d="M-420.4 254.83c1.61.46 3.29.8 4.94 1l.44-3.38c-1.52-.21-3.01-.5-4.46-.91l-.92 3.29z"/><linearGradient id="SVGID_1_" gradientUnits="userSpaceOnUse" x1="-460.97" y1="235.395" x2="-361.103" y2="235.395"><stop offset="0" stop-color="#44ac48"/><stop offset="1" stop-color="#016c31"/></linearGradient><path class="st4" d="M-371.18 221.06c0-.87-.02-1.71-.09-2.58 3.38-.21 6.73-.43 10.11-.64a47.345 47.345 0 0 0-3.45-15.5c-3.12 1.25-9.4 3.81-9.4 3.79-.44-1.73-1.82-4.2-3.24-6.36l-4.14 2.24c.69 1.21 1.49 2.62 2.07 3.65-1.03.5-2.05 1-3.08 1.51-.57-1-1.36-2.37-2.02-3.51l-3.31 1.78c5.77 8.49 6.3 20.23 1.33 29.2-5.01 9.03-15.37 14.83-25.69 14.37-10.34-.46-20.14-7.13-24.32-16.55-.09-.21-.16-.43-.23-.63l-10.48 5.66.28.78c1.47 2.35 2.92 4.72 4.39 7.07 0 .09-.51.39-.6.46-.21.16-.41.32-.62.48-.41.32-.83.64-1.22.94-.83.64-1.63 1.25-2.46 1.89-1.08.82-2.16 1.67-3.24 2.49 3.26 4.22 7.19 7.92 11.63 10.9 1.91-2.83 3.81-5.66 5.72-8.51 3.49 2.37 7.38 4.17 11.44 5.31-.92 3.28-1.86 6.57-2.78 9.85 4.32 1.21 8.87 1.87 13.56 1.87.74 0 1.47-.02 2.21-.05-.14-3.4-.3-6.82-.44-10.22 4.23-.18 8.41-1.03 12.36-2.51 1.19 3.17 2.41 6.36 3.61 9.53 5.01-1.92 9.65-4.58 13.74-7.92-2.14-2.62-4.27-5.27-6.41-7.89 3.29-2.67 6.16-5.84 8.46-9.4 2.85 1.82 5.68 3.67 8.52 5.5a49.5 49.5 0 0 0 6.36-14.48c-3.29-.84-6.55-1.69-9.83-2.53.85-3.26 1.26-6.64 1.26-9.99zm-69.15 19.24c-.83-1.43-1.62-2.86-2.43-4.29l1.43-.79c.55-.25 1.07-.51 1.63-.75.74 1.32 1.49 2.65 2.23 3.97-.95.61-1.92 1.24-2.86 1.86zm6.65 7.48c-1.29-1.07-2.48-2.26-3.61-3.51l2.55-2.26c.9 1 1.84 1.98 3.01 2.97l.02.02.02.02c.02.02.05.02.05.05.05.05.09.07.14.11l-2.18 2.6zm8.53 5.34c-1.54-.68-3.03-1.48-4.46-2.37l1.82-2.9c.99.62 2 1.19 3.06 1.69 0 0 .02 0 .02.02 0 0 .02 0 .02.02 0 0 .02 0 .02.02 0 0 .02 0 .02.02 0 0 .02 0 .02.02h.3s.02 0 .02.02c0 0 .02 0 .02.02 0 0 .02 0 .02.02 0 0 .02 0 .02.02.05.02.09.05.16.07l-1.06 3.33zm9.69 2.71c-1.68-.21-3.33-.55-4.94-1l.92-3.28c1.45.41 2.94.71 4.46.91l-.44 3.37zm38.03-45.51c.51 1.6.92 3.24 1.19 4.9l-3.38.57c-.25-1.51-.6-2.97-1.08-4.43l3.27-1.04zm-33 45.78l-.05-3.42c1.4-.02 2.83-.14 4.25-.34 0 0 .02 0 .09-.02 0 0 .02 0 .21-.02l.53 3.38c-1.67.27-3.35.4-5.03.42zm9.93-1.57l-1.01-3.26c1.45-.46 2.87-1 4.23-1.67l1.47 3.08c-1.52.73-3.08 1.35-4.69 1.85zm9.08-4.33l-1.91-2.83c1.26-.84 2.46-1.78 3.58-2.78l2.27 2.53c-1.21 1.12-2.54 2.14-3.94 3.08zm7.47-6.71l-2.62-2.19c.97-1.16 1.86-2.4 2.67-3.7l2.9 1.8a37.24 37.24 0 0 1-2.95 4.09zm5.28-8.53l-3.12-1.37c.07.02 1.38-3.76 1.49-4.22v-.05c0-.03 0-.02.02-.05l3.29.89c-.44 1.65-1.01 3.25-1.68 4.8zm2.89-13.99c.01 1.44-.06 2.88-.25 4.27l-3.4-.41c.18-1.46.25-2.97.23-4.54l3.42-.07v.75z"/><linearGradient id="XMLID_7_" gradientUnits="userSpaceOnUse" x1="-460.97" y1="199.065" x2="-361.103" y2="199.065" gradientTransform="translate(0 5.28)"><stop offset="0" stop-color="#8fc156"/><stop offset="1" stop-color="#39a935"/></linearGradient><path id="XMLID_4_" class="st5" d="M-384.58 203.3c1.01-.57 2.05-1.12 3.01-1.62.07.11.11.21.18.32l4.14-2.24c-1.26-1.94-2.57-3.67-3.29-4.43 2.18-1.85 5.28-4.45 7.77-6.55-3.42-4.04-7.44-7.55-11.97-10.33-1.72 2.76-3.86 6.23-5.38 8.67-3.58-2.24-7.54-3.85-11.65-4.81.62-2.58 1.59-6.68 2.37-9.92-3.72-.89-7.58-1.37-11.56-1.37 0 3.26.02 7.37.02 10.24-4.23 0-8.46.66-12.48 1.98-.99-2.99-2.14-6.64-3.15-9.74-5.12 1.69-9.9 4.17-14.15 7.32 1.93 2.6 4.32 5.82 6.11 8.21a39.71 39.71 0 0 0-8.85 9.03c-2.21-1.55-5.68-3.95-8.41-5.86-3.03 4.29-5.4 9.06-6.96 14.19 3.1.94 6.89 2.1 9.81 2.97a39.505 39.505 0 0 0-1.72 12.5c-2.07.05-4.11.09-6.18.14-1.03.02-2.07.05-3.08.07-.11 0-.53.02-.97.02.11 5.45 1.1 10.7 2.83 15.58 3.06-1.07 6.8-2.4 9.65-3.42l1.36 3.24 10.48-5.66c-3.45-8.28-2.62-18.2 2.21-25.78 4.94-7.73 13.92-12.75 23.12-12.91 9.19-.16 18.34 4.54 23.53 12.11.05.05.07.11.09.16l3.31-1.78c-.07-.1-.14-.22-.19-.33zm-61.53 17.7c0-1.6.11-3.19.32-4.77l3.38.46c-.11-.02-.32 4.54-.3 4.54l-3.42.02.02-.25zm1.49 10.17c-.48-1.6-.85-3.26-1.1-4.9l3.38-.5c.23 1.46.55 2.9.99 4.38 0 0 0 .02.02.05l-3.29.97zm3.15-18.93l-3.29-.94c.46-1.62 1.06-3.19 1.75-4.72l3.1 1.41c-.09-.06-1.6 4.25-1.56 4.25zm6.39-11.81c-.97 1.14-1.84 2.33-2.64 3.56l-2.87-1.82c.9-1.41 1.91-2.76 3.01-4.04 0 0 2.6 2.24 2.57 2.24s-.02-.01-.07.06zm3.26-3.31l-2.25-2.58a37.09 37.09 0 0 1 4.02-3.03l1.86 2.85c-1.26.84-2.48 1.75-3.63 2.76zm7.63-4.95l-1.42-3.1c1.52-.71 3.12-1.3 4.73-1.78l.97 3.26c-1.48.45-2.9 1-4.28 1.62zm13.24-2.88c-1.52 0-3.03.11-4.55.32-.16-1.05-.3-2.1-.46-3.15 0-.05-.02-.14-.02-.18 0-.05-.02-.02.02-.05.02-.02.09-.02.11-.02.14-.02.25-.05.39-.05.25-.02.53-.07.78-.09.53-.05 1.06-.09 1.56-.14.71-.05 1.42-.07 2.14-.07l.03 3.43zm8.11 1.03c.02-.11-4.48-.87-4.48-.84l.39-3.4c1.68.18 3.33.5 4.96.94l-.87 3.3zm8.34 3.56c-1.29-.78-2.64-1.48-4.04-2.08l1.33-3.15c1.54.66 3.06 1.44 4.48 2.3l-1.77 2.93zm7.03 5.77c0-.09-.41-.46-.48-.52-.21-.23-.44-.46-.67-.66-.69-.68-1.4-1.32-2.16-1.94l2.18-2.62c1.29 1.07 2.53 2.24 3.65 3.47l-2.52 2.27z"/></g></svg>